<svg id="svg" version="1.1" xmlns="http://www.w3.org/2000/svg" xmlns:xlink="http://www.w3.org/1999/xlink" width="400" height="278.72340425531917" viewBox="0, 0, 400,278.72340425531917"><g id="svgg"><path id="path0" d="M210.083 27.223 C 209.980 27.326,209.895 76.246,209.895 135.935 L 209.895 244.460 235.122 244.460 L 260.348 244.460 260.348 201.375 C 260.348 172.209,260.442 158.117,260.637 157.752 C 261.086 156.912,307.852 156.906,308.889 157.745 L 309.547 158.278 309.686 201.299 L 309.826 244.321 334.565 244.392 L 359.304 244.463 359.234 135.820 L 359.164 27.178 334.652 27.106 C 315.226 27.050,310.093 27.108,309.917 27.385 C 309.795 27.578,309.693 46.008,309.691 68.342 C 309.687 104.883,309.643 108.994,309.248 109.388 C 308.634 110.002,261.171 110.063,260.662 109.450 C 260.436 109.177,260.331 97.827,260.280 68.126 L 260.209 27.178 235.240 27.107 C 221.506 27.067,210.186 27.120,210.083 27.223 M30.314 27.758 C 30.199 27.873,30.105 76.678,30.105 136.214 L 30.105 244.460 54.896 244.460 C 68.553 244.460,79.755 244.352,79.837 244.219 C 79.919 244.086,80.007 232.326,80.031 218.086 C 80.084 187.340,80.021 188.582,81.605 186.968 C 82.255 186.305,82.787 185.679,82.787 185.577 C 82.787 185.212,84.230 183.274,85.588 181.815 C 86.347 180.999,86.969 180.147,86.969 179.922 C 86.969 179.697,87.721 178.729,88.641 177.771 C 89.561 176.814,90.314 175.941,90.314 175.832 C 90.314 175.427,91.614 173.752,93.031 172.331 C 93.836 171.524,94.495 170.732,94.495 170.570 C 94.495 170.189,95.505 168.881,97.266 166.981 C 98.042 166.145,98.676 165.287,98.676 165.075 C 98.676 164.864,99.429 163.907,100.348 162.949 C 101.268 161.991,102.021 161.076,102.021 160.916 C 102.021 160.757,102.189 160.486,102.394 160.316 C 102.793 159.985,104.530 162.281,104.530 163.141 C 104.530 163.369,104.710 163.705,104.930 163.888 C 105.150 164.070,105.406 164.566,105.499 164.989 C 105.592 165.412,107.293 169.009,109.280 172.983 C 111.266 176.958,112.891 180.472,112.892 180.794 C 112.892 181.115,113.143 181.667,113.449 182.021 C 113.756 182.374,114.007 182.850,114.007 183.079 C 114.007 183.396,117.547 190.742,119.004 193.449 C 120.237 195.739,121.533 198.621,121.533 199.073 C 121.533 199.381,121.784 199.952,122.091 200.342 C 122.397 200.732,122.648 201.271,122.648 201.541 C 122.648 201.810,122.818 202.096,123.027 202.176 C 123.235 202.256,123.485 202.818,123.582 203.424 C 123.679 204.031,123.939 204.677,124.161 204.861 C 124.382 205.045,124.644 205.562,124.742 206.009 C 124.841 206.457,125.029 206.890,125.161 206.971 C 125.435 207.141,126.829 210.007,126.829 210.402 C 126.829 210.546,127.005 210.809,127.220 210.988 C 127.435 211.166,127.696 211.652,127.799 212.067 C 127.903 212.482,128.151 213.010,128.351 213.240 C 128.551 213.470,128.807 213.972,128.920 214.355 C 129.033 214.739,129.283 215.240,129.475 215.470 C 129.667 215.700,129.907 216.346,130.007 216.906 C 130.107 217.465,130.374 218.076,130.600 218.264 C 130.826 218.451,131.010 218.823,131.010 219.091 C 131.010 219.358,131.261 219.895,131.568 220.285 C 131.875 220.675,132.125 221.172,132.125 221.389 C 132.125 221.607,133.819 225.155,135.889 229.273 C 137.958 233.392,139.652 237.036,139.652 237.371 C 139.652 237.706,139.836 238.134,140.062 238.321 C 140.288 238.509,140.552 239.084,140.649 239.600 C 140.746 240.116,141.000 240.683,141.214 240.860 C 141.428 241.038,141.603 241.365,141.603 241.587 C 141.603 241.810,141.929 242.547,142.327 243.227 L 143.051 244.463 170.968 244.392 L 198.885 244.321 198.787 243.632 C 198.734 243.254,198.452 242.641,198.160 242.271 C 197.869 241.900,197.631 241.379,197.631 241.112 C 197.631 240.844,197.451 240.476,197.230 240.294 C 197.010 240.111,196.751 239.603,196.655 239.164 C 196.559 238.725,196.300 238.217,196.080 238.034 C 195.860 237.851,195.679 237.483,195.679 237.216 C 195.679 236.949,195.429 236.411,195.122 236.021 C 194.815 235.632,194.564 235.130,194.564 234.907 C 194.564 234.683,194.314 234.181,194.007 233.792 C 193.700 233.402,193.449 232.900,193.449 232.677 C 193.449 232.453,193.199 231.951,192.892 231.562 C 192.585 231.172,192.334 230.745,192.334 230.613 C 192.334 230.480,191.960 229.685,191.503 228.845 C 191.046 228.004,190.544 227.003,190.388 226.620 C 190.232 226.237,189.979 225.735,189.824 225.505 C 189.670 225.275,189.471 224.899,189.383 224.669 C 189.125 223.995,188.734 223.168,188.462 222.718 C 187.464 221.070,183.684 212.985,183.688 212.508 C 183.691 212.182,183.505 211.759,183.275 211.568 C 183.045 211.377,182.857 211.005,182.857 210.740 C 182.857 210.476,182.606 209.970,182.300 209.617 C 181.993 209.263,181.742 208.761,181.742 208.502 C 181.742 208.242,181.491 207.740,181.185 207.387 C 180.878 207.033,180.627 206.563,180.627 206.343 C 180.627 206.122,180.376 205.623,180.070 205.233 C 179.763 204.843,179.512 204.306,179.512 204.038 C 179.512 203.771,179.332 203.403,179.112 203.220 C 178.892 203.038,178.633 202.529,178.537 202.091 C 178.440 201.652,178.189 201.150,177.979 200.976 C 177.769 200.801,177.518 200.299,177.422 199.861 C 177.325 199.422,177.066 198.913,176.846 198.731 C 176.626 198.548,176.446 198.182,176.446 197.918 C 176.446 197.654,176.195 197.148,175.889 196.794 C 175.582 196.441,175.331 195.971,175.331 195.750 C 175.331 195.530,175.080 195.030,174.774 194.641 C 174.467 194.251,174.216 193.749,174.216 193.526 C 174.216 193.302,173.965 192.800,173.659 192.411 C 173.352 192.021,173.101 191.483,173.101 191.216 C 173.101 190.949,172.921 190.581,172.701 190.398 C 172.481 190.215,172.222 189.707,172.125 189.268 C 172.029 188.830,171.770 188.321,171.550 188.138 C 171.330 187.956,171.150 187.588,171.150 187.321 C 171.150 187.053,170.899 186.516,170.592 186.126 C 170.286 185.736,170.035 185.237,170.035 185.016 C 170.035 184.795,169.784 184.326,169.477 183.972 C 169.171 183.619,168.920 183.149,168.920 182.928 C 168.920 182.707,168.669 182.208,168.362 181.818 C 168.056 181.428,167.805 180.891,167.805 180.624 C 167.805 180.357,167.625 179.988,167.405 179.806 C 167.185 179.623,166.926 179.115,166.829 178.676 C 166.733 178.237,166.474 177.729,166.254 177.546 C 166.034 177.363,165.854 176.995,165.854 176.728 C 165.854 176.461,165.603 175.923,165.296 175.534 C 164.990 175.144,164.739 174.644,164.739 174.424 C 164.739 174.203,164.488 173.733,164.181 173.380 C 163.875 173.026,163.624 172.525,163.624 172.265 C 163.624 172.005,163.373 171.503,163.066 171.150 C 162.760 170.796,162.509 170.291,162.509 170.026 C 162.509 169.762,162.329 169.396,162.109 169.213 C 161.888 169.031,161.629 168.522,161.533 168.084 C 161.437 167.645,161.186 167.143,160.976 166.969 C 160.765 166.794,160.514 166.292,160.418 165.854 C 160.322 165.415,160.063 164.906,159.843 164.724 C 159.623 164.541,159.443 164.173,159.443 163.906 C 159.443 163.639,159.192 163.101,158.885 162.711 C 158.578 162.322,158.328 161.822,158.328 161.601 C 158.328 161.381,158.077 160.911,157.770 160.557 C 157.463 160.204,157.213 159.698,157.213 159.434 C 157.213 159.170,157.037 158.807,156.822 158.629 C 156.607 158.451,156.346 157.965,156.243 157.550 C 156.139 157.134,155.891 156.606,155.691 156.376 C 155.491 156.146,155.241 155.645,155.135 155.261 C 155.030 154.878,152.067 148.782,148.552 141.715 C 145.036 134.648,142.160 128.732,142.160 128.568 C 142.160 128.404,142.060 128.228,141.937 128.177 C 141.728 128.090,137.093 118.832,136.796 117.909 C 136.641 117.427,137.313 115.958,137.689 115.958 C 137.828 115.958,138.030 115.678,138.139 115.336 C 138.382 114.571,139.221 113.398,140.418 112.153 C 140.916 111.634,141.324 110.985,141.324 110.712 C 141.324 110.438,141.757 109.794,142.287 109.281 C 142.816 108.768,143.321 108.020,143.409 107.620 C 143.497 107.220,144.256 106.178,145.095 105.305 C 145.934 104.432,146.620 103.532,146.620 103.304 C 146.620 103.077,147.122 102.311,147.735 101.603 C 148.348 100.894,148.850 100.067,148.850 99.765 C 148.850 99.463,149.030 99.147,149.251 99.062 C 149.471 98.978,150.249 98.026,150.980 96.946 C 151.710 95.867,152.722 94.558,153.227 94.037 C 153.733 93.517,154.146 92.867,154.146 92.593 C 154.146 92.319,154.572 91.683,155.092 91.179 C 155.613 90.674,156.112 89.928,156.202 89.521 C 156.293 89.114,157.059 88.045,157.904 87.146 C 158.750 86.246,159.443 85.299,159.443 85.040 C 159.443 84.781,159.876 84.149,160.405 83.636 C 160.935 83.123,161.448 82.337,161.547 81.890 C 161.645 81.443,161.898 81.011,162.109 80.930 C 162.321 80.849,163.067 79.912,163.767 78.849 C 164.468 77.786,165.393 76.575,165.823 76.159 C 166.253 75.742,166.682 75.086,166.775 74.702 C 166.869 74.318,167.385 73.566,167.924 73.030 C 168.462 72.494,168.906 71.918,168.911 71.750 C 168.916 71.582,169.171 71.155,169.477 70.801 C 169.784 70.448,170.035 70.084,170.036 69.992 C 170.037 69.901,170.475 69.349,171.010 68.767 C 171.545 68.185,172.056 67.416,172.145 67.059 C 172.235 66.701,172.738 65.993,173.262 65.484 C 173.787 64.976,174.216 64.331,174.216 64.051 C 174.216 63.771,174.718 62.997,175.331 62.332 C 175.944 61.667,176.446 61.048,176.446 60.957 C 176.446 60.681,177.661 59.013,178.594 58.009 C 179.077 57.488,179.543 56.778,179.630 56.431 C 179.718 56.083,180.229 55.346,180.766 54.793 C 181.303 54.240,181.742 53.623,181.742 53.422 C 181.742 53.221,182.432 52.294,183.275 51.363 C 184.118 50.431,184.808 49.466,184.808 49.218 C 184.808 48.971,185.310 48.224,185.923 47.558 C 186.537 46.893,187.038 46.106,187.038 45.809 C 187.038 45.513,187.540 44.780,188.153 44.181 C 188.767 43.582,189.268 42.998,189.268 42.883 C 189.268 42.566,190.424 40.958,191.436 39.868 C 191.930 39.336,192.334 38.698,192.334 38.450 C 192.334 38.203,192.836 37.473,193.449 36.828 C 194.063 36.183,194.564 35.513,194.564 35.337 C 194.564 34.984,196.704 32.325,197.272 31.972 C 197.469 31.850,197.631 31.505,197.631 31.206 C 197.631 30.908,198.070 30.178,198.606 29.584 C 199.143 28.990,199.582 28.362,199.582 28.188 C 199.582 27.521,141.769 27.904,141.650 28.571 C 141.595 28.878,141.143 29.568,140.644 30.105 C 140.146 30.641,139.445 31.582,139.087 32.195 C 138.730 32.808,137.957 33.840,137.372 34.489 C 136.786 35.137,136.307 35.896,136.307 36.176 C 136.307 36.456,135.873 37.105,135.344 37.618 C 134.814 38.131,134.307 38.890,134.216 39.303 C 134.125 39.717,133.618 40.475,133.088 40.988 C 132.559 41.501,132.125 42.135,132.125 42.396 C 132.125 42.657,131.706 43.291,131.192 43.805 C 130.679 44.318,130.050 45.145,129.793 45.642 C 129.537 46.138,128.765 47.177,128.078 47.951 C 127.391 48.724,126.829 49.533,126.829 49.748 C 126.829 49.964,126.328 50.720,125.714 51.429 C 125.101 52.137,124.599 52.935,124.599 53.203 C 124.599 53.470,124.166 54.108,123.637 54.622 C 123.107 55.135,122.599 55.896,122.507 56.314 C 122.415 56.731,122.020 57.371,121.627 57.735 C 121.235 58.099,120.511 59.024,120.017 59.791 C 119.524 60.557,118.732 61.610,118.256 62.131 C 117.781 62.651,117.314 63.389,117.218 63.771 C 117.122 64.153,116.611 64.885,116.083 65.398 C 115.554 65.912,115.122 66.539,115.122 66.793 C 115.122 67.047,114.620 67.799,114.007 68.464 C 113.394 69.130,112.892 69.904,112.892 70.186 C 112.892 70.467,112.511 71.062,112.046 71.507 C 111.581 71.953,110.872 72.886,110.471 73.580 C 110.069 74.275,109.258 75.374,108.668 76.022 C 108.078 76.670,107.596 77.391,107.596 77.624 C 107.596 77.857,107.173 78.518,106.657 79.093 C 106.141 79.669,105.624 80.444,105.508 80.816 C 105.392 81.188,104.873 81.928,104.356 82.461 C 103.838 82.994,103.415 83.639,103.415 83.893 C 103.415 84.147,103.030 84.724,102.559 85.174 C 102.089 85.625,101.344 86.620,100.905 87.387 C 100.465 88.153,99.658 89.213,99.112 89.741 C 98.566 90.269,98.118 90.920,98.118 91.188 C 98.118 91.455,97.617 92.253,97.003 92.962 C 96.390 93.670,95.889 94.471,95.889 94.742 C 95.889 95.012,95.562 95.538,95.162 95.910 C 94.763 96.281,93.503 98.000,92.364 99.729 C 91.224 101.458,89.929 103.219,89.486 103.643 C 89.044 104.066,88.600 104.737,88.500 105.134 C 88.400 105.531,87.890 106.272,87.365 106.781 C 86.840 107.289,86.411 107.931,86.411 108.207 C 86.411 108.483,85.997 109.180,85.490 109.755 C 84.556 110.816,82.670 113.510,82.006 114.732 C 81.775 115.156,81.393 115.401,80.960 115.401 L 80.279 115.401 80.279 71.793 C 80.279 38.591,80.200 28.138,79.950 27.983 C 79.511 27.711,30.581 27.490,30.314 27.758 " stroke="none" fill="#29b567" fill-rule="evenodd"></path><path id="path1" d="M0.000 139.373 L 0.000 278.746 200.000 278.746 L 400.000 278.746 400.000 139.373 L 400.000 0.000 200.000 0.000 L 0.000 0.000 0.000 139.373 M260.906 67.735 L 261.045 109.129 284.599 109.129 L 308.153 109.129 308.224 67.937 L 308.295 26.745 309.009 26.474 C 310.414 25.939,359.447 26.122,359.896 26.663 C 360.325 27.180,360.333 30.874,360.209 167.875 C 360.140 244.320,360.136 244.742,359.582 245.296 C 359.033 245.845,358.653 245.854,334.591 245.854 L 310.157 245.854 309.225 245.143 L 308.293 244.432 308.293 201.820 C 308.293 178.384,308.217 159.011,308.123 158.768 C 307.865 158.094,261.334 158.094,261.075 158.768 C 260.982 159.011,260.906 178.507,260.906 202.093 C 260.906 240.707,260.862 245.021,260.468 245.416 C 259.998 245.886,210.703 246.105,210.007 245.640 C 209.838 245.528,209.556 245.162,209.380 244.827 C 208.961 244.032,208.914 28.015,209.332 26.916 L 209.604 26.199 235.185 26.270 L 260.767 26.341 260.906 67.735 M80.677 26.919 C 81.071 27.313,81.115 31.642,81.115 70.403 C 81.115 94.079,81.184 113.449,81.268 113.449 C 81.505 113.449,82.787 112.004,82.787 111.736 C 82.787 111.605,82.976 111.498,83.206 111.498 C 83.462 111.498,83.624 111.237,83.624 110.823 C 83.624 110.403,84.045 109.734,84.739 109.054 C 85.352 108.453,85.854 107.716,85.854 107.415 C 85.854 107.115,86.287 106.449,86.816 105.936 C 87.346 105.423,87.854 104.663,87.945 104.248 C 88.036 103.833,88.512 103.128,89.003 102.681 C 89.494 102.235,90.209 101.261,90.592 100.518 C 90.976 99.774,91.509 99.025,91.777 98.854 C 92.045 98.682,92.265 98.412,92.265 98.253 C 92.265 98.094,92.516 97.749,92.822 97.486 C 93.129 97.224,93.380 96.803,93.380 96.551 C 93.380 96.300,93.819 95.680,94.355 95.174 C 94.892 94.668,95.331 93.989,95.331 93.666 C 95.331 93.343,95.833 92.601,96.446 92.018 C 97.061 91.433,97.561 90.693,97.561 90.368 C 97.561 90.043,98.063 89.281,98.676 88.674 C 99.289 88.067,99.792 87.403,99.792 87.200 C 99.793 86.996,100.483 86.057,101.325 85.112 C 102.168 84.168,102.858 83.164,102.860 82.882 C 102.862 82.600,103.303 81.941,103.842 81.418 C 104.380 80.895,104.900 80.143,104.997 79.746 C 105.094 79.349,105.593 78.625,106.106 78.137 C 106.619 77.649,107.038 76.986,107.038 76.663 C 107.038 76.340,107.540 75.598,108.153 75.015 C 108.767 74.431,109.268 73.766,109.268 73.536 C 109.268 73.306,109.519 72.891,109.826 72.613 C 110.132 72.336,110.383 71.986,110.383 71.836 C 110.383 71.687,110.802 71.169,111.313 70.687 C 111.825 70.205,112.331 69.461,112.438 69.034 C 112.545 68.607,113.067 67.859,113.599 67.371 C 114.130 66.884,114.566 66.233,114.567 65.925 C 114.569 65.618,115.011 64.938,115.549 64.415 C 116.087 63.892,116.607 63.139,116.704 62.742 C 116.802 62.346,117.301 61.622,117.813 61.134 C 118.326 60.646,118.748 60.144,118.751 60.019 C 118.759 59.638,120.279 57.518,121.212 56.584 C 121.695 56.101,122.091 55.448,122.091 55.133 C 122.091 54.818,122.509 54.166,123.020 53.684 C 123.532 53.201,124.038 52.457,124.145 52.030 C 124.252 51.603,124.775 50.855,125.306 50.368 C 125.837 49.880,126.272 49.224,126.272 48.909 C 126.272 48.594,126.774 47.846,127.387 47.247 C 128.000 46.649,128.502 46.021,128.502 45.854 C 128.502 45.495,129.082 44.712,130.523 43.126 C 131.098 42.494,131.568 41.756,131.568 41.488 C 131.568 41.219,132.068 40.461,132.679 39.803 C 133.291 39.145,133.793 38.370,133.794 38.082 C 133.796 37.793,134.216 37.162,134.728 36.680 C 135.239 36.198,135.744 35.458,135.850 35.037 C 135.956 34.616,136.453 33.867,136.956 33.372 C 137.459 32.878,138.005 32.160,138.170 31.777 C 138.335 31.394,139.009 30.471,139.668 29.726 C 140.327 28.982,141.063 27.978,141.304 27.496 L 141.742 26.620 170.453 26.544 C 186.244 26.502,199.461 26.539,199.825 26.627 C 200.930 26.895,200.558 29.180,199.208 30.419 C 198.647 30.934,198.186 31.607,198.182 31.914 C 198.179 32.222,197.489 33.195,196.649 34.077 C 195.809 34.959,195.122 35.858,195.122 36.075 C 195.122 36.291,194.620 37.007,194.007 37.665 C 193.394 38.322,192.892 39.080,192.892 39.348 C 192.892 39.617,192.392 40.375,191.780 41.033 C 191.169 41.691,190.667 42.318,190.665 42.427 C 190.659 42.782,189.405 44.485,188.492 45.377 C 187.999 45.859,187.596 46.498,187.596 46.798 C 187.596 47.098,187.094 47.836,186.481 48.437 C 185.868 49.038,185.363 49.769,185.360 50.061 C 185.356 50.353,184.666 51.325,183.827 52.221 C 182.987 53.116,182.300 54.029,182.300 54.248 C 182.300 54.467,181.798 55.191,181.185 55.856 C 180.571 56.522,180.068 57.303,180.065 57.592 C 180.062 57.882,179.561 58.611,178.950 59.213 C 178.339 59.815,177.840 60.405,177.840 60.524 C 177.840 60.893,176.612 62.575,175.669 63.496 C 175.177 63.977,174.774 64.616,174.774 64.914 C 174.774 65.213,174.334 65.909,173.798 66.462 C 173.261 67.015,172.822 67.552,172.822 67.656 C 172.822 67.993,171.313 70.073,170.383 71.016 C 169.885 71.521,169.477 72.136,169.477 72.382 C 169.477 72.628,168.976 73.374,168.362 74.039 C 167.749 74.705,167.247 75.479,167.247 75.761 C 167.247 76.043,166.808 76.662,166.272 77.137 C 165.735 77.613,165.294 78.106,165.291 78.234 C 165.283 78.595,163.852 80.623,162.853 81.689 C 162.358 82.216,161.953 82.884,161.953 83.173 C 161.952 83.461,161.512 84.111,160.976 84.617 C 160.439 85.123,160.000 85.633,160.000 85.750 C 160.000 86.140,158.479 88.197,157.561 89.050 C 157.063 89.513,156.655 90.150,156.655 90.466 C 156.655 90.782,156.216 91.466,155.679 91.986 C 155.143 92.506,154.704 93.161,154.704 93.441 C 154.704 93.721,154.202 94.494,153.589 95.159 C 152.976 95.825,152.474 96.443,152.474 96.534 C 152.474 96.834,151.118 98.705,150.278 99.564 C 149.824 100.028,149.372 100.733,149.272 101.130 C 149.172 101.527,148.660 102.258,148.134 102.754 C 147.608 103.250,147.178 103.801,147.178 103.979 C 147.178 104.344,146.353 105.463,145.023 106.900 C 144.528 107.435,144.038 108.209,143.936 108.618 C 143.833 109.028,143.329 109.748,142.815 110.220 C 142.302 110.691,141.882 111.299,141.882 111.572 C 141.882 111.845,141.380 112.613,140.767 113.278 C 140.153 113.943,139.652 114.569,139.652 114.668 C 139.652 114.768,139.204 115.486,138.656 116.265 C 138.108 117.044,137.731 117.827,137.818 118.005 C 137.905 118.182,138.088 118.516,138.226 118.746 C 138.364 118.976,138.615 119.477,138.784 119.861 C 138.952 120.244,139.203 120.746,139.341 120.976 C 139.479 121.206,139.730 121.707,139.899 122.091 C 140.067 122.474,140.323 122.976,140.468 123.206 C 140.613 123.436,141.061 124.314,141.464 125.157 C 141.866 126.000,142.313 126.878,142.457 127.108 C 142.601 127.338,142.843 127.840,142.996 128.223 C 143.149 128.606,143.386 129.108,143.524 129.338 C 143.661 129.568,143.911 130.070,144.080 130.453 C 144.248 130.836,144.499 131.338,144.637 131.568 C 144.775 131.798,145.026 132.300,145.195 132.683 C 145.363 133.066,145.614 133.568,145.752 133.798 C 145.890 134.028,146.141 134.530,146.310 134.913 C 146.478 135.296,146.735 135.798,146.879 136.028 C 147.024 136.258,147.472 137.136,147.875 137.979 C 148.277 138.822,148.711 139.700,148.838 139.930 C 148.965 140.160,149.207 140.662,149.376 141.045 C 149.544 141.429,149.795 141.930,149.933 142.160 C 150.071 142.390,150.322 142.892,150.491 143.275 C 150.659 143.659,150.910 144.160,151.048 144.390 C 151.186 144.620,151.437 145.122,151.606 145.505 C 151.774 145.889,152.023 146.390,152.158 146.620 C 152.916 147.908,153.589 149.401,153.589 149.794 C 153.589 150.041,153.699 150.244,153.834 150.244 C 153.968 150.244,154.240 150.652,154.437 151.150 C 154.634 151.648,154.949 152.244,155.138 152.474 C 155.326 152.704,155.565 153.415,155.670 154.055 C 155.775 154.694,156.039 155.286,156.258 155.370 C 156.476 155.454,156.655 155.821,156.655 156.185 C 156.655 156.549,156.906 157.074,157.213 157.352 C 157.519 157.629,157.770 158.099,157.770 158.396 C 157.770 158.693,158.021 159.255,158.328 159.645 C 158.634 160.035,158.885 160.537,158.885 160.760 C 158.885 160.984,159.136 161.485,159.443 161.875 C 159.749 162.265,160.000 162.804,160.000 163.074 C 160.000 163.344,160.172 163.630,160.383 163.711 C 160.594 163.792,160.848 164.295,160.948 164.829 C 161.048 165.363,161.315 165.871,161.541 165.957 C 161.766 166.044,161.951 166.413,161.951 166.777 C 161.951 167.142,162.202 167.667,162.509 167.944 C 162.815 168.222,163.066 168.692,163.066 168.989 C 163.066 169.286,163.317 169.848,163.624 170.238 C 163.930 170.627,164.181 171.129,164.181 171.353 C 164.181 171.576,164.432 172.078,164.739 172.467 C 165.045 172.857,165.296 173.359,165.296 173.582 C 165.296 173.806,165.547 174.308,165.854 174.697 C 166.160 175.087,166.411 175.627,166.411 175.896 C 166.411 176.166,166.583 176.452,166.794 176.533 C 167.005 176.614,167.259 177.117,167.359 177.651 C 167.459 178.185,167.726 178.693,167.952 178.780 C 168.178 178.866,168.362 179.204,168.362 179.529 C 168.362 179.855,168.613 180.440,168.920 180.830 C 169.226 181.220,169.477 181.721,169.477 181.945 C 169.477 182.168,169.728 182.670,170.035 183.060 C 170.341 183.450,170.592 183.951,170.592 184.175 C 170.592 184.398,170.843 184.900,171.150 185.290 C 171.456 185.680,171.707 186.217,171.707 186.484 C 171.707 186.751,171.887 187.120,172.108 187.302 C 172.328 187.485,172.588 188.002,172.687 188.451 C 172.786 188.901,172.980 189.268,173.118 189.268 C 173.256 189.268,173.453 189.613,173.556 190.035 C 173.659 190.456,173.975 191.101,174.259 191.466 C 174.542 191.832,174.774 192.314,174.774 192.537 C 174.774 192.761,175.024 193.262,175.331 193.652 C 175.638 194.042,175.889 194.544,175.889 194.767 C 175.889 194.991,176.139 195.492,176.446 195.882 C 176.753 196.272,177.003 196.774,177.003 196.997 C 177.003 197.221,177.254 197.722,177.561 198.112 C 177.868 198.502,178.118 199.041,178.118 199.311 C 178.118 199.580,178.291 199.867,178.501 199.948 C 178.712 200.029,178.966 200.532,179.066 201.066 C 179.167 201.600,179.433 202.108,179.659 202.194 C 179.885 202.281,180.070 202.618,180.070 202.944 C 180.070 203.269,180.321 203.855,180.627 204.244 C 180.934 204.634,181.185 205.136,181.185 205.359 C 181.185 205.583,181.436 206.085,181.742 206.474 C 182.049 206.864,182.300 207.366,182.300 207.589 C 182.300 207.813,182.551 208.315,182.857 208.704 C 183.164 209.094,183.415 209.632,183.415 209.899 C 183.415 210.166,183.599 210.538,183.825 210.726 C 184.051 210.913,184.315 211.488,184.412 212.004 C 184.509 212.520,184.763 213.087,184.977 213.265 C 185.191 213.442,185.366 213.806,185.366 214.073 C 185.366 214.340,185.617 214.878,185.923 215.268 C 186.230 215.658,186.481 216.107,186.481 216.268 C 186.481 216.428,186.983 217.512,187.596 218.676 C 188.209 219.840,188.711 220.975,188.711 221.198 C 188.711 221.421,188.817 221.603,188.947 221.603 C 189.077 221.603,189.387 222.073,189.635 222.648 C 189.883 223.223,190.201 223.882,190.342 224.111 C 190.483 224.341,191.380 226.160,192.334 228.153 C 193.289 230.146,194.173 231.965,194.298 232.195 C 194.424 232.425,195.614 234.808,196.943 237.491 C 198.271 240.174,199.472 242.557,199.612 242.787 C 200.459 244.188,200.502 244.429,200.033 245.145 L 199.569 245.854 171.771 245.852 C 141.725 245.850,142.978 245.910,141.929 244.413 C 141.102 243.233,140.235 241.397,140.058 240.451 C 139.957 239.918,139.717 239.420,139.524 239.346 C 139.331 239.272,139.094 238.715,138.997 238.109 C 138.900 237.502,138.631 236.849,138.400 236.657 C 138.168 236.465,137.979 236.142,137.979 235.939 C 137.979 235.564,136.801 233.209,136.330 232.641 C 136.188 232.471,135.988 231.992,135.884 231.578 C 135.780 231.163,135.519 230.678,135.304 230.500 C 135.089 230.322,134.913 229.957,134.913 229.690 C 134.913 229.423,134.662 228.885,134.355 228.495 C 134.049 228.106,133.798 227.604,133.798 227.380 C 133.798 227.157,133.547 226.655,133.240 226.265 C 132.934 225.876,132.683 225.374,132.683 225.150 C 132.683 224.927,132.432 224.425,132.125 224.035 C 131.819 223.646,131.568 222.967,131.568 222.527 C 131.568 222.072,131.328 221.521,131.010 221.249 C 130.704 220.987,130.453 220.471,130.453 220.102 C 130.453 219.734,130.267 219.361,130.040 219.274 C 129.813 219.187,129.546 218.611,129.448 217.995 C 129.349 217.379,129.096 216.731,128.885 216.556 C 128.674 216.382,128.502 216.020,128.502 215.753 C 128.502 215.485,128.251 214.948,127.944 214.558 C 127.638 214.168,127.387 213.667,127.387 213.443 C 127.387 213.220,127.136 212.718,126.829 212.328 C 126.523 211.938,126.272 211.471,126.272 211.289 C 126.272 211.108,126.021 210.640,125.714 210.250 C 125.408 209.860,125.157 209.323,125.157 209.056 C 125.157 208.789,124.977 208.421,124.757 208.238 C 124.536 208.055,124.278 207.547,124.181 207.108 C 124.085 206.669,123.826 206.161,123.606 205.978 C 123.386 205.795,123.206 205.503,123.206 205.328 C 123.206 205.152,122.955 204.541,122.648 203.969 C 122.341 203.397,122.091 202.634,122.091 202.274 C 122.091 201.914,121.840 201.392,121.533 201.115 C 121.226 200.837,120.976 200.373,120.976 200.082 C 120.976 199.630,120.465 198.467,119.532 196.794 C 119.260 196.306,118.858 195.437,118.631 194.843 C 118.543 194.613,118.344 194.237,118.190 194.007 C 118.035 193.777,117.783 193.275,117.628 192.892 C 117.473 192.509,116.721 191.017,115.956 189.578 C 115.191 188.139,114.564 186.842,114.564 186.695 C 114.564 186.549,114.314 186.110,114.007 185.721 C 113.700 185.331,113.449 184.653,113.449 184.213 C 113.449 183.774,113.199 183.164,112.892 182.857 C 112.585 182.551,112.334 182.064,112.334 181.776 C 112.334 181.488,112.146 181.097,111.916 180.906 C 111.686 180.715,111.498 180.338,111.498 180.067 C 111.498 179.797,110.746 178.105,109.826 176.307 C 108.906 174.509,108.153 172.915,108.153 172.765 C 108.153 172.615,107.902 172.173,107.596 171.783 C 107.289 171.394,107.038 170.851,107.038 170.578 C 107.038 170.305,106.940 170.039,106.820 169.988 C 106.484 169.845,105.140 166.938,104.941 165.923 C 104.844 165.425,104.651 165.017,104.513 165.017 C 104.375 165.017,104.177 164.681,104.074 164.270 C 103.872 163.464,102.578 161.403,102.578 161.887 C 102.578 162.047,101.826 162.925,100.906 163.836 C 99.986 164.747,99.233 165.655,99.233 165.852 C 99.233 166.195,97.807 167.982,95.926 169.995 C 95.446 170.509,95.052 171.105,95.052 171.318 C 95.052 171.532,94.300 172.490,93.380 173.448 C 92.460 174.406,91.707 175.278,91.707 175.387 C 91.707 175.771,90.424 177.439,88.984 178.929 C 88.182 179.757,87.526 180.536,87.526 180.658 C 87.526 181.031,86.332 182.655,85.226 183.787 C 84.651 184.375,84.181 184.971,84.181 185.111 C 84.181 185.251,83.993 185.366,83.763 185.366 C 83.506 185.366,83.345 185.627,83.345 186.041 C 83.345 186.461,82.923 187.130,82.230 187.810 L 81.115 188.903 81.111 216.751 C 81.108 232.068,81.012 244.748,80.896 244.930 C 80.340 245.805,78.965 245.854,54.659 245.854 C 31.025 245.854,30.175 245.836,29.714 245.327 C 28.980 244.515,28.637 28.315,29.369 27.198 L 29.839 26.481 55.039 26.481 C 77.576 26.481,80.285 26.527,80.677 26.919 " stroke="none" fill="#fbfcfb" fill-rule="evenodd"></path><path id="path2" d="M29.882 27.094 C 29.698 27.278,29.547 27.553,29.547 27.705 C 29.547 27.857,29.705 27.764,29.899 27.500 C 30.490 26.691,79.848 26.921,80.473 27.735 C 80.722 28.060,80.849 28.118,80.777 27.875 C 80.453 26.780,80.167 26.768,54.760 26.764 C 36.037 26.761,30.137 26.839,29.882 27.094 M141.812 27.339 C 141.544 27.496,141.324 27.808,141.324 28.034 C 141.324 28.260,140.804 29.009,140.168 29.698 C 139.533 30.388,139.064 31.004,139.127 31.067 C 139.191 31.130,139.742 30.556,140.353 29.790 C 140.964 29.025,141.683 28.155,141.951 27.858 C 142.491 27.259,155.715 27.173,186.458 27.566 C 200.983 27.752,200.519 27.682,198.960 29.458 C 198.446 30.044,197.870 30.882,197.680 31.321 C 197.490 31.760,196.712 32.836,195.950 33.712 C 195.188 34.588,194.564 35.444,194.564 35.614 C 194.564 35.785,194.063 36.504,193.449 37.213 C 192.836 37.921,192.334 38.668,192.334 38.872 C 192.334 39.077,191.939 39.665,191.455 40.180 C 190.971 40.694,190.169 41.742,189.673 42.509 C 189.178 43.275,188.455 44.197,188.068 44.556 C 187.681 44.916,187.282 45.537,187.181 45.938 C 187.081 46.339,186.569 47.142,186.043 47.724 C 185.517 48.306,185.087 48.966,185.087 49.190 C 185.087 49.415,184.518 50.261,183.823 51.071 C 182.158 53.010,182.147 53.024,181.659 53.963 C 181.427 54.409,180.919 55.072,180.529 55.436 C 180.139 55.800,179.744 56.443,179.652 56.864 C 179.559 57.286,179.164 57.928,178.773 58.293 C 178.382 58.657,177.532 59.770,176.884 60.767 C 176.236 61.763,175.488 62.757,175.223 62.974 C 174.958 63.192,174.579 63.757,174.380 64.229 C 174.182 64.701,173.625 65.508,173.142 66.023 C 172.660 66.537,172.265 67.117,172.265 67.312 C 172.265 67.507,172.087 67.814,171.870 67.995 C 171.653 68.175,170.874 69.225,170.139 70.328 C 169.405 71.432,168.391 72.805,167.886 73.381 C 167.381 73.956,166.969 74.617,166.969 74.850 C 166.969 75.083,166.486 75.804,165.896 76.452 C 165.306 77.100,164.495 78.199,164.094 78.894 C 163.692 79.588,162.983 80.521,162.518 80.967 C 162.053 81.412,161.672 82.004,161.672 82.281 C 161.672 82.559,161.261 83.257,160.758 83.832 C 160.255 84.407,159.505 85.380,159.091 85.993 C 158.677 86.606,157.897 87.601,157.357 88.204 C 156.818 88.807,156.376 89.458,156.376 89.650 C 156.376 89.843,155.875 90.581,155.261 91.289 C 154.648 91.998,154.146 92.799,154.146 93.069 C 154.146 93.340,153.821 93.865,153.424 94.237 C 152.660 94.952,151.080 97.165,151.080 97.520 C 151.080 97.636,150.643 98.154,150.110 98.671 C 149.576 99.188,149.009 100.007,148.849 100.491 C 148.689 100.975,148.185 101.729,147.729 102.166 C 147.272 102.604,146.899 103.106,146.899 103.283 C 146.899 103.607,146.515 104.114,144.599 106.317 C 144.024 106.978,143.554 107.701,143.554 107.923 C 143.554 108.146,143.187 108.680,142.738 109.110 C 142.289 109.539,141.765 110.284,141.574 110.764 C 141.382 111.245,140.777 112.147,140.229 112.769 C 139.682 113.392,138.892 114.458,138.475 115.139 C 138.057 115.819,137.527 116.632,137.296 116.944 C 136.917 117.456,136.928 117.621,137.414 118.616 C 137.711 119.224,138.084 120.035,138.244 120.418 C 138.404 120.801,138.661 121.303,138.815 121.533 C 138.969 121.763,139.219 122.265,139.372 122.648 C 139.525 123.031,139.776 123.533,139.930 123.763 C 140.084 123.993,140.334 124.495,140.487 124.878 C 140.640 125.261,140.881 125.763,141.022 125.993 C 141.671 127.049,154.146 152.402,154.146 152.666 C 154.146 152.829,154.325 153.111,154.543 153.292 C 154.761 153.473,155.021 154.108,155.122 154.704 C 155.223 155.299,155.475 155.928,155.683 156.101 C 155.891 156.274,156.141 156.774,156.237 157.213 C 156.333 157.651,156.584 158.153,156.794 158.328 C 157.005 158.502,157.256 159.004,157.352 159.443 C 157.448 159.881,157.707 160.390,157.927 160.572 C 158.147 160.755,158.328 161.123,158.328 161.390 C 158.328 161.657,158.559 162.175,158.843 162.541 C 159.126 162.906,159.442 163.551,159.545 163.972 C 159.648 164.394,159.845 164.739,159.983 164.739 C 160.121 164.739,160.315 165.106,160.414 165.556 C 160.513 166.005,160.773 166.522,160.994 166.705 C 161.214 166.887,161.394 167.152,161.394 167.293 C 161.394 167.515,162.628 170.191,163.301 171.429 C 164.202 173.085,164.739 174.234,164.739 174.506 C 164.739 174.681,164.990 175.144,165.296 175.534 C 165.603 175.923,165.854 176.461,165.854 176.728 C 165.854 176.995,166.034 177.363,166.254 177.546 C 166.474 177.729,166.733 178.237,166.829 178.676 C 166.926 179.115,167.185 179.623,167.405 179.806 C 167.625 179.988,167.805 180.357,167.805 180.624 C 167.805 180.891,168.056 181.428,168.362 181.818 C 168.669 182.208,168.920 182.707,168.920 182.928 C 168.920 183.149,169.171 183.619,169.477 183.972 C 169.784 184.326,170.035 184.795,170.035 185.016 C 170.035 185.237,170.286 185.736,170.592 186.126 C 170.899 186.516,171.150 187.053,171.150 187.321 C 171.150 187.588,171.330 187.956,171.550 188.138 C 171.770 188.321,172.029 188.830,172.125 189.268 C 172.222 189.707,172.481 190.215,172.701 190.398 C 172.921 190.581,173.101 190.949,173.101 191.216 C 173.101 191.483,173.352 192.021,173.659 192.411 C 173.965 192.800,174.216 193.302,174.216 193.526 C 174.216 193.749,174.467 194.251,174.774 194.641 C 175.080 195.030,175.331 195.530,175.331 195.750 C 175.331 195.971,175.582 196.441,175.889 196.794 C 176.195 197.148,176.446 197.654,176.446 197.918 C 176.446 198.182,176.626 198.548,176.846 198.731 C 177.066 198.913,177.325 199.422,177.422 199.861 C 177.518 200.299,177.769 200.801,177.979 200.976 C 178.189 201.150,178.440 201.652,178.537 202.091 C 178.633 202.529,178.892 203.038,179.112 203.220 C 179.332 203.403,179.512 203.771,179.512 204.038 C 179.512 204.306,179.763 204.843,180.070 205.233 C 180.376 205.623,180.627 206.122,180.627 206.343 C 180.627 206.563,180.878 207.033,181.185 207.387 C 181.491 207.740,181.742 208.242,181.742 208.502 C 181.742 208.761,181.993 209.263,182.300 209.617 C 182.606 209.970,182.857 210.476,182.857 210.740 C 182.857 211.005,183.045 211.377,183.275 211.568 C 183.505 211.759,183.691 212.182,183.688 212.508 C 183.684 212.985,187.464 221.070,188.462 222.718 C 188.601 222.948,188.853 223.449,189.021 223.833 C 189.190 224.216,189.440 224.718,189.577 224.948 C 189.715 225.178,189.956 225.679,190.113 226.063 C 190.493 226.987,190.535 227.071,191.502 228.845 C 191.960 229.685,192.334 230.480,192.334 230.613 C 192.334 230.745,192.585 231.172,192.892 231.562 C 193.199 231.951,193.449 232.453,193.449 232.677 C 193.449 232.900,193.700 233.402,194.007 233.792 C 194.314 234.181,194.564 234.683,194.564 234.907 C 194.564 235.130,194.815 235.632,195.122 236.021 C 195.429 236.411,195.679 236.949,195.679 237.216 C 195.679 237.483,195.860 237.851,196.080 238.034 C 196.300 238.217,196.559 238.725,196.655 239.164 C 196.751 239.603,197.010 240.111,197.230 240.294 C 197.451 240.476,197.631 240.844,197.631 241.112 C 197.631 241.379,197.869 241.900,198.160 242.271 C 198.452 242.641,198.734 243.254,198.787 243.632 L 198.885 244.321 170.968 244.392 L 143.051 244.463 142.327 243.227 C 141.929 242.547,141.603 241.810,141.603 241.587 C 141.603 241.365,141.428 241.038,141.214 240.860 C 141.000 240.683,140.746 240.116,140.649 239.600 C 140.552 239.084,140.288 238.509,140.062 238.321 C 139.836 238.134,139.652 237.706,139.652 237.371 C 139.652 237.036,137.958 233.392,135.889 229.273 C 133.819 225.155,132.125 221.607,132.125 221.389 C 132.125 221.172,131.875 220.675,131.568 220.285 C 131.261 219.895,131.010 219.358,131.010 219.091 C 131.010 218.823,130.826 218.451,130.600 218.264 C 130.374 218.076,130.107 217.465,130.007 216.906 C 129.907 216.346,129.662 215.700,129.464 215.470 C 129.265 215.240,129.016 214.706,128.911 214.283 C 128.805 213.860,128.622 213.454,128.503 213.381 C 128.385 213.307,127.369 211.396,126.246 209.132 C 125.123 206.869,124.109 204.977,123.993 204.927 C 123.876 204.878,123.698 204.376,123.597 203.812 C 123.496 203.249,123.256 202.599,123.064 202.369 C 122.871 202.139,122.622 201.638,122.509 201.254 C 122.396 200.871,122.147 200.369,121.957 200.139 C 121.766 199.909,121.532 199.311,121.438 198.810 C 121.343 198.309,121.135 197.744,120.974 197.555 C 120.441 196.929,114.007 183.841,114.007 183.383 C 114.007 183.135,113.756 182.613,113.449 182.224 C 113.143 181.834,112.891 181.409,112.891 181.280 C 112.889 180.907,111.630 177.918,111.304 177.511 C 111.142 177.309,110.916 176.829,110.801 176.446 C 110.687 176.063,110.478 175.603,110.335 175.425 C 109.889 174.866,105.369 165.731,105.367 165.385 C 105.362 164.285,102.642 160.152,102.373 160.836 C 102.283 161.066,101.477 162.018,100.582 162.951 C 99.687 163.883,98.954 164.824,98.953 165.041 C 98.951 165.258,98.132 166.376,97.132 167.526 C 94.857 170.143,94.918 170.065,94.409 171.037 C 94.176 171.482,93.524 172.286,92.961 172.822 C 92.397 173.359,91.487 174.488,90.939 175.331 C 90.390 176.174,89.335 177.468,88.594 178.206 C 87.853 178.944,87.244 179.696,87.239 179.878 C 87.234 180.060,86.727 180.774,86.112 181.463 C 84.734 183.009,82.787 185.554,82.787 185.811 C 82.787 185.915,82.286 186.545,81.672 187.210 L 80.557 188.420 80.544 192.537 C 80.494 207.891,80.026 243.914,79.874 244.160 C 79.744 244.370,72.286 244.460,54.896 244.460 L 30.105 244.460 30.064 239.512 C 30.041 236.791,29.941 209.916,29.841 179.791 L 29.659 125.017 29.603 184.577 C 29.572 217.334,29.623 244.334,29.716 244.577 C 29.939 245.157,79.923 245.262,80.502 244.683 C 80.757 244.427,80.836 237.793,80.836 216.523 L 80.836 188.698 81.951 187.489 C 82.564 186.823,83.066 186.164,83.066 186.022 C 83.066 185.726,83.824 184.725,85.513 182.792 C 86.170 182.041,86.999 180.962,87.357 180.395 C 87.715 179.829,88.225 179.184,88.491 178.963 C 89.096 178.462,91.429 175.446,91.429 175.167 C 91.429 175.053,92.181 174.176,93.101 173.219 C 94.021 172.261,94.776 171.309,94.778 171.104 C 94.782 170.797,96.888 168.156,98.528 166.400 C 98.749 166.163,99.029 165.709,99.151 165.390 C 99.725 163.887,102.747 161.154,103.144 161.779 C 103.947 163.042,105.087 165.302,105.087 165.630 C 105.087 165.819,106.604 169.051,108.458 172.813 C 110.312 176.574,112.016 180.091,112.245 180.627 C 112.474 181.164,112.901 182.067,113.194 182.634 C 113.488 183.201,113.728 183.906,113.728 184.202 C 113.728 184.498,113.904 184.886,114.119 185.064 C 114.334 185.243,114.595 185.729,114.698 186.144 C 114.802 186.559,115.050 187.087,115.250 187.317 C 115.450 187.547,115.706 188.049,115.819 188.432 C 115.932 188.815,116.183 189.317,116.376 189.547 C 116.570 189.777,116.821 190.279,116.934 190.662 C 117.047 191.045,117.298 191.547,117.491 191.777 C 117.685 192.007,117.936 192.496,118.048 192.865 C 118.161 193.233,118.600 194.123,119.024 194.843 C 119.449 195.563,119.888 196.453,120.001 196.822 C 120.113 197.190,120.365 197.679,120.559 197.909 C 120.754 198.139,121.004 198.767,121.115 199.303 C 121.226 199.840,121.474 200.467,121.667 200.697 C 121.860 200.927,122.342 201.930,122.738 202.927 C 123.134 203.923,124.843 207.498,126.535 210.871 C 128.227 214.244,129.613 217.154,129.614 217.339 C 129.616 217.523,130.118 218.627,130.732 219.791 C 131.345 220.955,131.847 222.059,131.847 222.245 C 131.847 222.430,133.477 225.832,135.470 229.804 C 137.463 233.777,139.098 237.163,139.103 237.329 C 139.108 237.495,139.420 238.258,139.797 239.024 C 140.174 239.791,140.484 240.630,140.485 240.889 C 140.487 241.149,140.610 241.436,140.759 241.528 C 140.908 241.620,141.264 242.226,141.551 242.875 C 142.596 245.237,139.548 245.017,171.279 245.017 C 195.603 245.017,199.544 244.962,199.676 244.616 C 199.761 244.395,197.775 240.095,195.262 235.060 C 192.750 230.024,190.562 225.595,190.400 225.217 C 190.238 224.839,189.985 224.341,189.838 224.111 C 189.691 223.882,188.752 222.015,187.751 219.964 C 186.750 217.912,185.820 216.094,185.683 215.922 C 185.546 215.750,185.341 215.296,185.228 214.913 C 185.114 214.530,184.864 214.028,184.671 213.798 C 184.479 213.568,184.240 212.922,184.139 212.363 C 184.039 211.803,183.773 211.192,183.547 211.004 C 183.321 210.817,183.136 210.508,183.136 210.318 C 183.136 210.128,182.510 208.795,181.745 207.356 C 180.979 205.916,180.227 204.425,180.072 204.042 C 179.918 203.659,179.665 203.157,179.511 202.927 C 179.356 202.697,179.153 202.321,179.060 202.091 C 178.966 201.861,173.636 191.136,167.215 178.258 C 160.793 165.380,155.540 154.718,155.540 154.564 C 155.540 154.411,151.464 146.124,146.481 136.149 C 141.498 126.173,137.422 117.873,137.422 117.703 C 137.422 117.310,139.646 113.986,140.755 112.723 C 141.221 112.192,141.603 111.581,141.603 111.366 C 141.603 111.151,142.105 110.395,142.718 109.686 C 143.331 108.978,143.833 108.222,143.833 108.006 C 143.833 107.791,144.397 106.980,145.086 106.204 C 145.775 105.427,146.553 104.451,146.815 104.034 C 147.077 103.617,147.705 102.805,148.210 102.229 C 148.716 101.654,149.129 100.956,149.129 100.679 C 149.129 100.401,149.509 99.809,149.974 99.364 C 150.439 98.918,151.149 97.986,151.550 97.291 C 151.952 96.596,152.763 95.498,153.353 94.849 C 153.942 94.201,154.425 93.480,154.425 93.247 C 154.425 93.015,154.847 92.353,155.364 91.778 C 155.880 91.202,156.400 90.418,156.519 90.035 C 156.638 89.652,157.407 88.585,158.227 87.666 C 159.048 86.746,159.719 85.844,159.720 85.662 C 159.721 85.479,160.223 84.750,160.836 84.042 C 161.449 83.333,161.951 82.596,161.951 82.405 C 161.951 82.213,162.336 81.687,162.806 81.237 C 163.277 80.787,164.021 79.791,164.460 79.024 C 164.899 78.258,165.637 77.268,166.100 76.825 C 166.563 76.382,167.016 75.680,167.107 75.264 C 167.199 74.849,167.706 74.090,168.236 73.576 C 168.765 73.063,169.199 72.497,169.199 72.318 C 169.199 72.139,169.951 71.038,170.871 69.871 C 171.791 68.704,172.544 67.621,172.544 67.465 C 172.544 67.308,172.966 66.709,173.482 66.133 C 173.998 65.558,174.500 64.836,174.596 64.530 C 174.693 64.223,175.117 63.596,175.539 63.136 C 175.961 62.676,176.676 61.735,177.127 61.045 C 177.578 60.355,178.349 59.352,178.839 58.815 C 179.329 58.279,179.823 57.526,179.937 57.143 C 180.051 56.760,180.566 55.975,181.082 55.400 C 181.599 54.825,182.021 54.197,182.022 54.006 C 182.023 53.815,182.705 52.894,183.539 51.959 C 184.373 51.025,185.135 49.943,185.232 49.554 C 185.330 49.165,185.839 48.432,186.363 47.923 C 186.888 47.415,187.317 46.777,187.317 46.505 C 187.317 46.234,187.882 45.376,188.571 44.599 C 189.261 43.823,189.826 43.085,189.826 42.961 C 189.826 42.837,190.453 42.018,191.220 41.142 C 191.986 40.266,192.613 39.376,192.613 39.164 C 192.613 38.953,193.115 38.200,193.728 37.491 C 194.341 36.783,194.844 36.054,194.844 35.872 C 194.845 35.689,195.535 34.767,196.378 33.823 C 197.220 32.878,197.909 31.914,197.909 31.680 C 197.909 31.445,198.411 30.674,199.024 29.965 C 200.176 28.634,200.382 27.950,199.805 27.373 C 199.365 26.933,142.565 26.900,141.812 27.339 M260.765 68.153 L 260.767 109.408 284.634 109.479 C 303.514 109.535,308.561 109.477,308.789 109.200 C 308.986 108.960,309.012 96.056,308.872 68.153 L 308.666 27.456 308.619 68.362 L 308.571 109.268 284.740 109.268 L 260.908 109.268 260.836 68.084 L 260.764 26.899 260.765 68.153 M138.155 32.544 C 137.788 33.118,137.160 33.893,136.758 34.265 C 136.356 34.636,136.038 35.138,136.050 35.380 C 136.069 35.755,136.094 35.759,136.223 35.401 C 136.306 35.171,136.776 34.544,137.266 34.007 C 138.202 32.983,139.208 31.498,138.965 31.498 C 138.886 31.498,138.522 31.969,138.155 32.544 M135.101 36.868 C 134.668 37.324,134.171 38.027,133.998 38.430 C 133.824 38.834,133.269 39.635,132.764 40.210 C 132.260 40.785,131.847 41.389,131.847 41.551 C 131.847 41.713,132.348 41.266,132.962 40.557 C 133.575 39.849,134.077 39.089,134.077 38.869 C 134.077 38.649,134.533 37.963,135.091 37.345 C 136.266 36.045,136.275 35.633,135.101 36.868 M130.704 43.327 C 130.153 43.950,129.373 45.028,128.971 45.723 C 128.570 46.418,127.861 47.350,127.396 47.796 C 126.931 48.242,126.551 48.705,126.551 48.826 C 126.551 49.210,128.616 46.755,129.698 45.087 C 130.270 44.206,130.857 43.484,131.003 43.484 C 131.265 43.484,131.980 42.382,131.800 42.258 C 131.749 42.223,131.256 42.704,130.704 43.327 M126.294 49.632 C 126.282 49.870,125.833 50.490,125.296 51.010 C 124.760 51.531,124.330 52.151,124.343 52.389 C 124.362 52.764,124.385 52.766,124.516 52.404 C 124.599 52.174,125.105 51.527,125.640 50.966 C 126.176 50.405,126.547 49.778,126.465 49.572 C 126.354 49.294,126.310 49.309,126.294 49.632 M209.394 147.405 C 209.356 213.520,209.429 244.109,209.627 244.478 C 209.976 245.132,260.111 245.349,260.512 244.699 C 260.621 244.524,260.762 225.050,260.827 201.424 C 260.892 177.797,260.995 158.310,261.056 158.118 C 261.144 157.843,266.094 157.770,284.575 157.770 L 307.982 157.770 308.416 158.390 C 308.804 158.944,308.850 163.498,308.850 201.552 C 308.850 242.413,308.870 244.113,309.360 244.556 C 310.021 245.154,358.931 245.278,359.526 244.683 C 359.785 244.424,359.848 226.104,359.805 163.638 C 359.749 83.196,359.748 83.091,359.567 132.265 C 359.467 159.401,359.366 195.746,359.344 213.033 L 359.303 244.463 334.564 244.392 L 309.826 244.321 309.633 201.840 C 309.431 157.132,309.457 157.926,308.188 157.620 C 307.862 157.542,297.065 157.512,284.194 157.554 L 260.792 157.631 260.598 158.328 C 260.491 158.711,260.391 178.247,260.376 201.742 L 260.348 244.460 235.122 244.460 L 209.895 244.460 209.855 212.753 C 209.832 195.314,209.732 151.756,209.632 115.958 L 209.450 50.871 209.394 147.405 M123.378 53.913 C 122.936 54.368,122.414 55.125,122.218 55.594 C 122.021 56.062,121.534 56.752,121.135 57.126 C 120.736 57.500,120.079 58.378,119.674 59.077 C 119.270 59.776,118.457 60.879,117.867 61.527 C 117.277 62.175,116.795 62.928,116.796 63.199 C 116.797 63.526,116.944 63.411,117.230 62.857 C 117.467 62.397,117.952 61.749,118.306 61.417 C 118.661 61.084,119.241 60.332,119.595 59.744 C 119.949 59.157,120.719 58.146,121.304 57.498 C 121.890 56.849,122.369 56.128,122.369 55.896 C 122.369 55.663,122.826 54.967,123.384 54.349 C 124.566 53.041,124.561 52.692,123.378 53.913 M115.683 64.804 C 115.166 65.338,114.796 65.819,114.862 65.871 C 114.928 65.923,115.405 65.486,115.921 64.899 C 117.093 63.566,116.942 63.506,115.683 64.804 M113.473 68.129 C 112.966 68.652,112.618 69.248,112.699 69.453 C 112.816 69.745,112.853 69.737,112.870 69.421 C 112.882 69.198,113.293 68.602,113.783 68.097 C 114.273 67.591,114.611 67.178,114.534 67.178 C 114.458 67.178,113.980 67.606,113.473 68.129 M111.470 71.202 C 110.918 71.825,110.234 72.711,109.950 73.171 C 109.667 73.631,108.958 74.537,108.376 75.185 C 107.793 75.834,107.317 76.500,107.317 76.666 C 107.317 77.073,109.303 74.756,110.105 73.412 C 110.459 72.820,111.191 71.866,111.732 71.294 C 112.274 70.722,112.662 70.213,112.595 70.162 C 112.528 70.111,112.022 70.579,111.470 71.202 M106.095 78.607 C 105.541 79.221,105.095 79.942,105.105 80.210 C 105.120 80.623,105.157 80.612,105.351 80.139 C 105.476 79.833,105.856 79.332,106.195 79.028 C 106.791 78.491,107.458 77.491,107.220 77.491 C 107.156 77.491,106.650 77.993,106.095 78.607 M103.976 81.808 C 103.458 82.342,103.089 82.822,103.155 82.874 C 103.221 82.927,103.697 82.490,104.214 81.903 C 105.386 80.570,105.235 80.509,103.976 81.808 M101.994 84.860 C 101.442 85.483,100.662 86.561,100.261 87.256 C 99.859 87.951,99.150 88.884,98.685 89.329 C 98.220 89.775,97.840 90.238,97.840 90.360 C 97.840 90.734,99.933 88.287,100.621 87.108 C 100.978 86.495,101.714 85.525,102.255 84.953 C 102.796 84.381,103.184 83.871,103.118 83.820 C 103.051 83.769,102.545 84.237,101.994 84.860 M97.561 91.115 C 97.561 91.249,97.122 91.838,96.585 92.424 C 96.049 93.009,95.620 93.684,95.632 93.922 C 95.651 94.297,95.675 94.299,95.812 93.937 C 95.898 93.707,96.390 93.048,96.905 92.473 C 97.748 91.529,98.075 90.871,97.700 90.871 C 97.624 90.871,97.561 90.981,97.561 91.115 M80.683 103.833 C 80.683 109.199,80.721 111.354,80.766 108.623 C 80.812 105.892,80.812 101.502,80.766 98.867 C 80.720 96.232,80.683 98.467,80.683 103.833 M94.549 95.414 C 93.486 96.511,93.348 97.113,94.381 96.146 C 95.040 95.529,95.763 94.495,95.535 94.495 C 95.483 94.495,95.039 94.908,94.549 95.414 M91.936 99.164 C 91.707 99.432,91.226 100.153,90.867 100.767 C 90.508 101.380,89.734 102.412,89.149 103.060 C 88.563 103.708,88.084 104.429,88.084 104.662 C 88.084 104.895,87.645 105.571,87.108 106.165 C 86.571 106.759,86.132 107.332,86.132 107.437 C 86.132 107.543,86.634 107.050,87.247 106.341 C 87.861 105.633,88.362 104.870,88.362 104.646 C 88.362 104.422,88.837 103.708,89.417 103.060 C 89.996 102.412,90.938 101.160,91.510 100.279 C 92.552 98.672,92.712 98.252,91.936 99.164 M84.824 109.617 C 84.351 110.115,83.889 110.836,83.797 111.220 C 83.638 111.879,83.648 111.876,83.986 111.156 C 84.183 110.738,84.706 110.017,85.151 109.554 C 85.595 109.090,85.896 108.711,85.821 108.711 C 85.746 108.711,85.297 109.118,84.824 109.617 M82.039 113.478 C 81.380 114.473,81.253 114.554,81.061 114.105 C 80.852 113.614,80.844 113.615,80.908 114.123 C 81.006 114.903,81.527 114.955,81.899 114.223 C 82.076 113.874,82.427 113.307,82.678 112.962 C 82.929 112.617,83.058 112.334,82.965 112.334 C 82.872 112.334,82.455 112.849,82.039 113.478 " stroke="none" fill="#a5ddb9" fill-rule="evenodd"></path><path id="path3" d="M209.895 26.754 C 209.402 27.065,209.413 23.918,209.616 108.711 L 209.754 166.551 209.895 96.864 L 210.035 27.178 235.122 27.178 L 260.209 27.178 260.280 68.126 C 260.331 97.827,260.436 109.177,260.662 109.450 C 261.171 110.063,308.634 110.002,309.248 109.388 C 309.643 108.994,309.687 104.883,309.691 68.342 C 309.693 46.008,309.795 27.578,309.917 27.385 C 310.093 27.108,315.226 27.050,334.652 27.106 L 359.164 27.178 359.304 98.955 C 359.381 138.432,359.475 157.300,359.513 140.882 C 359.551 124.465,359.665 92.227,359.767 69.241 C 359.942 29.796,359.925 27.421,359.468 26.965 C 358.738 26.234,310.469 26.215,309.427 26.945 L 308.764 27.409 308.919 68.188 C 309.043 100.795,309.003 109.026,308.722 109.259 C 308.483 109.458,300.822 109.528,284.569 109.479 L 260.767 109.408 260.696 68.169 C 260.640 35.603,260.552 26.884,260.278 26.710 C 259.771 26.388,210.407 26.431,209.895 26.754 M29.806 27.632 C 29.555 28.102,29.535 50.985,29.722 125.412 L 29.965 222.578 30.105 125.157 L 30.244 27.735 54.789 27.754 C 68.289 27.765,79.547 27.855,79.806 27.955 C 80.248 28.124,80.279 31.017,80.279 71.768 L 80.279 115.401 80.960 115.401 C 81.393 115.401,81.775 115.156,82.006 114.732 C 82.670 113.510,84.556 110.816,85.490 109.755 C 85.997 109.180,86.411 108.483,86.411 108.207 C 86.411 107.931,86.840 107.289,87.365 106.781 C 87.890 106.272,88.400 105.531,88.500 105.134 C 88.600 104.737,89.044 104.066,89.486 103.643 C 89.929 103.219,91.224 101.458,92.364 99.729 C 93.503 98.000,94.763 96.281,95.162 95.910 C 95.562 95.538,95.889 95.012,95.889 94.742 C 95.889 94.471,96.390 93.670,97.003 92.962 C 97.617 92.253,98.118 91.455,98.118 91.188 C 98.118 90.920,98.566 90.269,99.112 89.741 C 99.658 89.213,100.465 88.153,100.905 87.387 C 101.344 86.620,102.089 85.625,102.559 85.174 C 103.030 84.724,103.415 84.147,103.415 83.893 C 103.415 83.639,103.838 82.994,104.356 82.461 C 104.873 81.928,105.392 81.188,105.508 80.816 C 105.624 80.444,106.141 79.669,106.657 79.093 C 107.173 78.518,107.596 77.857,107.596 77.624 C 107.596 77.391,108.078 76.670,108.668 76.022 C 109.258 75.374,110.069 74.275,110.471 73.580 C 110.872 72.886,111.581 71.953,112.046 71.507 C 112.511 71.062,112.892 70.467,112.892 70.186 C 112.892 69.904,113.394 69.130,114.007 68.464 C 114.620 67.799,115.122 67.047,115.122 66.793 C 115.122 66.539,115.554 65.912,116.083 65.398 C 116.611 64.885,117.122 64.153,117.218 63.771 C 117.314 63.389,117.781 62.651,118.256 62.131 C 118.732 61.610,119.524 60.557,120.017 59.791 C 120.511 59.024,121.235 58.099,121.627 57.735 C 122.020 57.371,122.415 56.731,122.507 56.314 C 122.599 55.896,123.107 55.135,123.637 54.622 C 124.166 54.108,124.599 53.470,124.599 53.203 C 124.599 52.935,125.101 52.137,125.714 51.429 C 126.328 50.720,126.829 49.964,126.829 49.748 C 126.829 49.533,127.391 48.724,128.078 47.951 C 128.765 47.177,129.537 46.138,129.793 45.642 C 130.050 45.145,130.679 44.318,131.192 43.805 C 131.706 43.291,132.125 42.657,132.125 42.396 C 132.125 42.135,132.559 41.501,133.088 40.988 C 133.618 40.475,134.125 39.717,134.216 39.303 C 134.307 38.890,134.814 38.131,135.344 37.618 C 135.873 37.105,136.307 36.456,136.307 36.176 C 136.307 35.896,136.789 35.137,137.379 34.489 C 137.969 33.840,138.780 32.742,139.182 32.047 C 139.583 31.352,140.292 30.420,140.757 29.974 C 141.222 29.529,141.603 28.992,141.603 28.781 C 141.603 28.310,139.693 30.482,138.815 31.953 C 138.461 32.546,137.765 33.470,137.269 34.007 C 136.773 34.544,136.274 35.296,136.161 35.679 C 136.047 36.063,135.532 36.847,135.015 37.422 C 134.499 37.998,134.077 38.656,134.077 38.885 C 134.077 39.114,133.652 39.772,133.133 40.348 C 132.614 40.923,131.993 41.864,131.753 42.439 C 131.514 43.014,131.187 43.484,131.028 43.484 C 130.868 43.484,130.270 44.206,129.698 45.087 C 129.127 45.969,128.185 47.220,127.605 47.868 C 127.025 48.516,126.551 49.276,126.551 49.556 C 126.551 49.836,126.121 50.481,125.597 50.989 C 125.072 51.498,124.561 52.238,124.462 52.635 C 124.362 53.032,123.851 53.832,123.325 54.414 C 122.799 54.996,122.369 55.663,122.369 55.896 C 122.369 56.128,121.894 56.849,121.314 57.498 C 120.733 58.146,119.936 59.178,119.542 59.791 C 119.148 60.404,118.432 61.327,117.950 61.841 C 117.468 62.356,117.073 62.944,117.073 63.148 C 117.073 63.353,116.571 64.100,115.958 64.808 C 115.345 65.517,114.843 66.277,114.843 66.497 C 114.843 66.717,114.421 67.368,113.905 67.943 C 113.388 68.519,112.873 69.303,112.759 69.686 C 112.646 70.070,112.147 70.822,111.651 71.359 C 111.155 71.895,110.459 72.820,110.105 73.412 C 109.751 74.005,108.979 75.048,108.389 75.729 C 107.800 76.410,107.317 77.148,107.317 77.368 C 107.317 77.588,106.878 78.254,106.341 78.848 C 105.805 79.442,105.366 80.062,105.366 80.226 C 105.366 80.390,104.864 81.103,104.251 81.812 C 103.638 82.520,103.136 83.320,103.136 83.588 C 103.136 83.857,102.755 84.441,102.290 84.887 C 101.825 85.332,101.116 86.265,100.715 86.960 C 100.313 87.655,99.502 88.753,98.912 89.401 C 98.322 90.050,97.840 90.770,97.840 91.003 C 97.840 91.236,97.417 91.898,96.901 92.473 C 96.385 93.048,95.870 93.815,95.758 94.177 C 95.645 94.539,95.158 95.292,94.675 95.850 C 94.193 96.408,93.672 97.062,93.519 97.303 C 92.141 99.475,90.136 102.289,89.338 103.173 C 88.801 103.767,88.362 104.433,88.362 104.653 C 88.362 104.873,87.861 105.633,87.247 106.341 C 86.634 107.050,86.132 107.810,86.132 108.030 C 86.132 108.250,85.710 108.901,85.194 109.477 C 84.678 110.052,84.167 110.805,84.060 111.150 C 83.953 111.495,83.764 111.777,83.641 111.777 C 83.517 111.777,82.992 112.464,82.475 113.304 C 80.531 116.456,80.633 118.998,80.772 70.801 C 80.882 33.004,80.848 28.231,80.470 27.735 C 80.052 27.186,79.670 27.177,55.090 27.098 L 30.135 27.019 29.806 27.632 M142.069 27.666 C 141.687 27.945,147.320 28.000,170.499 27.942 C 193.487 27.884,199.457 27.941,199.655 28.220 C 199.840 28.483,199.874 28.466,199.789 28.153 C 199.594 27.438,143.034 26.960,142.069 27.666 M198.589 29.617 L 197.770 30.523 198.676 29.704 C 199.174 29.254,199.582 28.846,199.582 28.798 C 199.582 28.583,199.352 28.772,198.589 29.617 M196.654 32.449 C 196.501 32.666,195.958 33.356,195.447 33.983 C 194.085 35.652,194.520 35.373,196.060 33.589 C 196.788 32.746,197.282 32.056,197.157 32.056 C 197.033 32.056,196.806 32.233,196.654 32.449 M193.101 37.139 C 192.679 37.608,192.334 38.119,192.334 38.275 C 192.334 38.432,192.366 38.506,192.404 38.441 C 192.443 38.375,192.906 37.852,193.434 37.279 C 193.963 36.706,194.276 36.248,194.131 36.262 C 193.986 36.275,193.523 36.670,193.101 37.139 M191.349 39.935 C 190.216 41.141,189.783 41.895,190.831 40.836 C 191.725 39.934,192.466 39.021,192.299 39.030 C 192.242 39.032,191.814 39.440,191.349 39.935 M188.039 44.295 C 187.454 44.894,187.042 45.553,187.124 45.759 C 187.241 46.051,187.278 46.044,187.295 45.726 C 187.307 45.503,187.782 44.844,188.349 44.263 C 188.917 43.681,189.319 43.206,189.242 43.206 C 189.165 43.206,188.624 43.696,188.039 44.295 M185.816 47.666 C 185.262 48.280,184.816 49.001,184.826 49.269 C 184.838 49.608,184.928 49.544,185.120 49.059 C 185.272 48.676,185.791 47.955,186.272 47.456 C 186.754 46.958,187.075 46.551,186.986 46.551 C 186.897 46.551,186.371 47.053,185.816 47.666 M183.158 51.484 C 182.379 52.358,181.742 53.199,181.742 53.353 C 181.742 53.507,181.962 53.339,182.230 52.980 C 182.498 52.622,183.204 51.781,183.799 51.112 C 184.393 50.443,184.811 49.895,184.727 49.895 C 184.643 49.895,183.937 50.610,183.158 51.484 M180.400 55.110 C 180.045 55.492,179.803 55.854,179.863 55.914 C 179.922 55.973,180.330 55.647,180.769 55.189 C 181.208 54.730,181.450 54.369,181.307 54.385 C 181.163 54.401,180.755 54.727,180.400 55.110 M178.535 58.057 C 177.627 59.065,176.446 60.705,176.446 60.957 C 176.446 61.048,175.944 61.667,175.331 62.332 C 174.718 62.997,174.224 63.764,174.234 64.036 C 174.249 64.463,174.282 64.454,174.480 63.972 C 174.605 63.666,174.972 63.177,175.295 62.887 C 175.618 62.596,176.281 61.718,176.769 60.935 C 177.257 60.153,178.097 59.044,178.636 58.472 C 179.175 57.900,179.554 57.371,179.479 57.296 C 179.404 57.221,178.979 57.563,178.535 58.057 M173.156 65.588 C 172.666 66.094,172.265 66.601,172.265 66.716 C 172.265 66.928,173.209 66.026,173.902 65.152 C 174.531 64.358,174.109 64.604,173.156 65.588 M170.396 69.552 C 170.121 69.939,169.676 70.522,169.408 70.849 C 169.019 71.323,168.647 72.326,169.020 71.893 C 169.448 71.397,171.127 68.850,171.025 68.850 C 170.955 68.850,170.672 69.166,170.396 69.552 M168.497 72.408 C 167.838 72.885,166.691 74.504,166.708 74.934 C 166.719 75.234,166.824 75.152,167.002 74.704 C 167.154 74.321,167.672 73.599,168.154 73.101 C 168.982 72.244,169.126 71.954,168.497 72.408 M165.643 76.278 C 165.297 76.651,164.447 77.817,163.754 78.869 C 163.061 79.922,162.309 80.853,162.083 80.940 C 161.857 81.027,161.672 81.250,161.672 81.437 C 161.672 81.983,163.299 80.270,164.087 78.894 C 164.485 78.199,165.259 77.160,165.807 76.585 C 166.355 76.010,166.684 75.553,166.537 75.570 C 166.391 75.586,165.989 75.904,165.643 76.278 M161.394 82.315 C 161.394 82.515,160.955 83.104,160.418 83.624 C 159.882 84.144,159.443 84.740,159.443 84.950 C 159.443 85.159,159.944 84.750,160.557 84.042 C 161.525 82.924,161.979 81.951,161.533 81.951 C 161.456 81.951,161.394 82.115,161.394 82.315 M157.422 87.694 C 156.693 88.544,156.106 89.450,156.115 89.707 C 156.129 90.065,156.188 90.038,156.368 89.592 C 156.498 89.273,157.000 88.583,157.485 88.059 C 158.273 87.208,159.034 86.119,158.825 86.141 C 158.781 86.145,158.150 86.844,157.422 87.694 M154.987 91.285 C 154.469 91.819,154.099 92.299,154.165 92.352 C 154.232 92.404,154.708 91.967,155.224 91.380 C 156.397 90.047,156.245 89.986,154.987 91.285 M153.156 94.088 C 152.688 94.583,151.708 95.870,150.978 96.948 C 150.248 98.027,149.471 98.978,149.251 99.062 C 149.030 99.147,148.850 99.405,148.850 99.637 C 148.850 99.880,149.320 99.548,149.965 98.848 C 150.578 98.182,151.080 97.553,151.080 97.449 C 151.080 97.146,152.240 95.558,153.285 94.430 C 153.816 93.858,154.195 93.345,154.128 93.289 C 154.062 93.234,153.624 93.594,153.156 94.088 M147.666 101.640 C 147.091 102.330,146.630 103.106,146.642 103.364 C 146.660 103.748,146.693 103.757,146.822 103.415 C 146.909 103.185,147.401 102.526,147.915 101.950 C 148.429 101.375,148.850 100.779,148.850 100.626 C 148.850 100.227,148.819 100.254,147.666 101.640 M144.739 105.632 C 143.360 107.210,143.166 107.790,144.415 106.603 C 145.121 105.931,146.283 104.217,146.000 104.263 C 145.958 104.270,145.390 104.886,144.739 105.632 M143.297 107.890 C 143.285 108.128,142.836 108.748,142.300 109.268 C 141.763 109.788,141.328 110.409,141.333 110.647 C 141.339 110.967,141.421 110.935,141.648 110.523 C 141.817 110.216,142.329 109.568,142.786 109.083 C 143.243 108.598,143.550 108.034,143.468 107.829 C 143.358 107.553,143.314 107.568,143.297 107.890 M140.284 112.302 C 138.946 113.800,138.357 114.632,138.138 115.331 C 138.030 115.676,137.829 115.958,137.690 115.958 C 136.589 115.958,136.620 118.140,137.749 120.000 C 138.475 121.197,138.361 120.524,137.561 118.891 C 136.945 117.633,136.920 117.450,137.298 116.940 C 137.528 116.630,138.057 115.819,138.475 115.139 C 138.892 114.458,139.722 113.358,140.320 112.694 C 140.917 112.030,141.356 111.443,141.295 111.390 C 141.234 111.337,140.779 111.747,140.284 112.302 M138.282 121.115 C 139.014 122.889,141.176 126.856,141.265 126.589 C 141.329 126.397,141.195 126.027,140.967 125.768 C 140.740 125.508,140.461 124.983,140.348 124.599 C 140.236 124.216,139.980 123.714,139.780 123.484 C 139.580 123.254,139.331 122.726,139.228 122.311 C 139.124 121.896,138.843 121.394,138.603 121.196 C 138.363 120.998,138.219 120.962,138.282 121.115 M142.441 129.401 C 142.440 129.512,142.689 130.014,142.995 130.516 C 143.302 131.018,143.552 131.303,143.551 131.150 C 143.551 130.997,143.301 130.495,142.997 130.035 C 142.692 129.575,142.442 129.290,142.441 129.401 M143.556 131.631 C 143.555 131.742,143.804 132.244,144.110 132.746 C 144.417 133.248,144.667 133.533,144.666 133.380 C 144.666 133.226,144.416 132.725,144.111 132.265 C 143.807 131.805,143.557 131.520,143.556 131.631 M144.717 134.007 C 145.433 135.594,146.424 137.432,146.515 137.341 C 146.659 137.197,144.992 133.798,144.777 133.798 C 144.692 133.798,144.665 133.892,144.717 134.007 M146.624 137.840 C 146.624 137.993,146.873 138.495,147.178 138.955 C 147.482 139.415,147.732 139.666,147.732 139.512 C 147.732 139.359,147.482 138.857,147.178 138.397 C 146.873 137.937,146.624 137.686,146.624 137.840 M147.737 139.993 C 147.736 140.105,147.986 140.606,148.292 141.108 C 148.598 141.610,148.848 141.895,148.847 141.742 C 148.847 141.589,148.597 141.087,148.293 140.627 C 147.988 140.167,147.738 139.882,147.737 139.993 M148.852 142.223 C 148.851 142.335,149.101 142.836,149.407 143.338 C 149.713 143.840,149.963 144.125,149.962 143.972 C 149.962 143.819,149.712 143.317,149.408 142.857 C 149.103 142.397,148.853 142.112,148.852 142.223 M150.804 146.202 C 150.805 146.355,151.054 146.857,151.359 147.317 C 152.081 148.407,152.081 148.019,151.360 146.836 C 151.054 146.334,150.804 146.049,150.804 146.202 M151.920 148.432 C 151.920 148.585,152.169 149.087,152.474 149.547 C 152.778 150.007,153.028 150.258,153.028 150.105 C 153.028 149.951,152.778 149.449,152.474 148.990 C 152.169 148.530,151.920 148.279,151.920 148.432 M153.031 150.695 C 153.031 150.848,153.216 151.217,153.441 151.515 C 153.666 151.812,153.850 151.930,153.850 151.777 C 153.850 151.624,153.666 151.255,153.441 150.957 C 153.216 150.660,153.031 150.542,153.031 150.695 M260.810 157.422 C 260.739 157.537,271.236 157.596,284.138 157.553 C 297.040 157.511,307.864 157.541,308.192 157.620 C 309.213 157.868,309.264 158.428,309.418 170.871 L 309.567 182.997 309.557 170.637 L 309.547 158.278 308.889 157.745 C 308.202 157.189,261.149 156.873,260.810 157.422 M102.355 160.334 C 102.171 160.518,102.023 160.801,102.025 160.962 C 102.028 161.123,102.154 161.066,102.306 160.836 C 102.617 160.366,103.298 161.055,104.098 162.648 C 104.328 163.108,104.520 163.314,104.523 163.105 C 104.528 162.814,102.900 160.000,102.727 160.000 C 102.706 160.000,102.539 160.151,102.355 160.334 M100.339 162.997 L 98.815 164.599 100.418 163.076 C 101.907 161.660,102.149 161.394,101.942 161.394 C 101.898 161.394,101.177 162.115,100.339 162.997 M98.676 165.100 C 98.676 165.298,98.042 166.145,97.266 166.981 C 95.632 168.743,94.495 170.184,94.495 170.491 C 94.495 170.609,94.714 170.417,94.983 170.063 C 95.251 169.710,96.253 168.524,97.210 167.428 C 98.726 165.693,99.295 164.739,98.815 164.739 C 98.739 164.739,98.676 164.901,98.676 165.100 M105.662 166.272 C 105.662 166.425,105.846 166.794,106.072 167.092 C 106.297 167.389,106.481 167.507,106.481 167.354 C 106.481 167.201,106.297 166.832,106.072 166.534 C 105.846 166.237,105.662 166.118,105.662 166.272 M106.485 167.944 C 106.485 168.098,106.734 168.599,107.038 169.059 C 107.343 169.519,107.592 169.770,107.592 169.617 C 107.592 169.463,107.343 168.962,107.038 168.502 C 106.734 168.042,106.485 167.791,106.485 167.944 M107.599 170.174 C 107.599 170.328,107.849 170.829,108.153 171.289 C 108.458 171.749,108.707 172.000,108.707 171.847 C 108.707 171.693,108.458 171.192,108.153 170.732 C 107.849 170.272,107.599 170.021,107.599 170.174 M92.683 172.634 C 91.403 173.965,90.225 175.614,90.417 175.806 C 90.489 175.878,90.768 175.581,91.037 175.146 C 91.306 174.711,92.158 173.697,92.931 172.892 C 93.704 172.087,94.215 171.439,94.067 171.452 C 93.919 171.465,93.296 171.997,92.683 172.634 M108.713 172.328 C 108.712 172.439,108.961 172.941,109.267 173.443 C 109.573 173.945,109.823 174.230,109.823 174.077 C 109.822 173.923,109.573 173.422,109.268 172.962 C 108.964 172.502,108.714 172.216,108.713 172.328 M88.564 177.846 C 87.687 178.769,86.977 179.741,86.986 180.006 C 87.000 180.368,87.067 180.331,87.256 179.860 C 87.395 179.515,88.024 178.762,88.654 178.188 C 89.639 177.290,90.523 176.167,90.246 176.167 C 90.198 176.167,89.441 176.923,88.564 177.846 M112.066 179.108 C 112.071 179.254,112.264 179.686,112.495 180.070 L 112.915 180.767 112.733 180.070 C 112.543 179.343,112.048 178.629,112.066 179.108 M84.774 182.712 C 84.141 183.398,83.624 184.046,83.624 184.152 C 83.624 184.257,83.665 184.292,83.716 184.228 C 83.766 184.164,84.347 183.516,85.005 182.787 C 85.664 182.059,86.141 181.463,86.064 181.463 C 85.987 181.463,85.407 182.025,84.774 182.712 M81.522 187.050 C 80.041 188.566,80.075 187.916,80.090 214.495 L 80.102 236.794 80.290 218.537 C 80.393 208.495,80.495 197.610,80.517 194.349 L 80.557 188.420 81.708 187.171 C 83.142 185.616,83.007 185.529,81.522 187.050 " stroke="none" fill="#a8cc9c" fill-rule="evenodd"></path><path id="path4" d="M209.525 26.386 C 209.422 26.489,209.338 26.703,209.338 26.862 C 209.338 27.034,209.472 27.016,209.672 26.815 C 210.170 26.318,260.079 26.332,260.606 26.829 C 260.904 27.110,260.951 27.097,260.848 26.760 C 260.713 26.318,209.962 25.949,209.525 26.386 M308.990 26.459 C 308.412 26.684,307.787 109.268,308.362 109.268 C 308.477 109.268,308.571 90.920,308.571 68.494 C 308.571 32.041,308.617 27.654,309.005 27.100 L 309.439 26.481 334.315 26.481 C 353.292 26.481,359.271 26.560,359.526 26.815 C 360.014 27.303,360.014 244.195,359.526 244.683 C 358.889 245.320,309.892 245.149,309.311 244.508 C 308.886 244.038,308.850 240.652,308.850 201.472 C 308.850 161.384,308.822 158.913,308.362 158.353 L 307.875 157.760 284.464 157.835 C 261.290 157.909,261.052 157.915,260.984 158.467 C 260.947 158.774,260.987 158.868,261.073 158.676 C 261.341 158.084,307.896 158.175,308.123 158.768 C 308.217 159.011,308.293 178.384,308.293 201.820 L 308.293 244.432 309.225 245.143 L 310.157 245.854 334.591 245.854 C 358.653 245.854,359.033 245.845,359.582 245.296 C 360.136 244.742,360.140 244.320,360.209 167.875 C 360.333 30.874,360.325 27.180,359.896 26.663 C 359.482 26.164,310.252 25.966,308.990 26.459 M29.369 27.198 C 28.637 28.315,28.980 244.515,29.714 245.327 C 30.175 245.836,31.025 245.854,54.659 245.854 C 78.965 245.854,80.340 245.805,80.896 244.930 C 81.012 244.748,81.108 232.068,81.111 216.751 L 81.115 188.903 82.230 187.810 C 82.890 187.163,83.336 186.469,83.323 186.111 C 83.308 185.699,83.251 185.639,83.144 185.923 C 83.057 186.153,82.503 186.872,81.911 187.520 L 80.836 188.698 80.836 216.523 C 80.836 237.793,80.757 244.427,80.502 244.683 C 79.923 245.262,29.939 245.157,29.716 244.577 C 29.320 243.544,29.532 27.398,29.929 27.068 C 30.543 26.559,79.756 26.767,80.375 27.282 C 80.800 27.634,80.838 31.021,80.856 70.626 C 80.867 94.256,80.969 113.828,81.084 114.121 C 81.270 114.596,81.357 114.551,81.882 113.703 C 82.207 113.180,82.736 112.470,83.059 112.125 C 83.523 111.629,83.556 111.498,83.216 111.498 C 82.980 111.498,82.787 111.605,82.787 111.736 C 82.787 112.004,81.505 113.449,81.268 113.449 C 81.184 113.449,81.115 94.079,81.115 70.403 C 81.115 31.642,81.071 27.313,80.677 26.919 C 80.285 26.527,77.576 26.481,55.039 26.481 L 29.839 26.481 29.369 27.198 M141.479 27.100 C 141.241 27.441,141.045 27.830,141.045 27.965 C 141.045 28.100,140.464 28.856,139.754 29.645 C 139.044 30.435,138.330 31.394,138.166 31.777 C 138.003 32.160,137.459 32.878,136.956 33.372 C 136.453 33.867,135.956 34.616,135.850 35.037 C 135.744 35.458,135.239 36.198,134.728 36.680 C 134.216 37.162,133.802 37.793,133.806 38.082 C 133.814 38.579,133.830 38.580,134.105 38.108 C 134.264 37.834,134.762 37.234,135.211 36.774 C 135.660 36.315,136.028 35.714,136.028 35.440 C 136.028 35.165,136.353 34.636,136.750 34.265 C 137.463 33.597,139.094 31.345,139.094 31.028 C 139.094 30.937,139.596 30.319,140.209 29.654 C 140.822 28.989,141.324 28.258,141.324 28.030 C 141.324 27.802,141.567 27.486,141.863 27.327 C 142.690 26.884,199.361 26.929,199.805 27.373 C 200.382 27.950,200.176 28.634,199.024 29.965 C 198.411 30.674,197.909 31.445,197.909 31.680 C 197.909 31.914,197.220 32.878,196.378 33.823 C 195.535 34.767,194.845 35.689,194.844 35.872 C 194.844 36.054,194.341 36.783,193.728 37.491 C 193.115 38.200,192.613 38.953,192.613 39.164 C 192.613 39.376,191.986 40.266,191.220 41.142 C 190.453 42.018,189.826 42.837,189.826 42.961 C 189.826 43.085,189.261 43.823,188.571 44.599 C 187.882 45.376,187.317 46.222,187.317 46.478 C 187.317 46.735,186.855 47.419,186.290 47.997 C 185.725 48.576,185.332 49.118,185.416 49.203 C 185.684 49.470,187.596 47.355,187.596 46.792 C 187.596 46.496,187.999 45.859,188.492 45.377 C 189.405 44.485,190.659 42.782,190.665 42.427 C 190.667 42.318,191.169 41.691,191.780 41.033 C 192.392 40.375,192.892 39.617,192.892 39.348 C 192.892 39.080,193.394 38.322,194.007 37.665 C 194.620 37.007,195.122 36.291,195.122 36.075 C 195.122 35.858,195.809 34.959,196.649 34.077 C 197.489 33.195,198.179 32.222,198.182 31.914 C 198.186 31.607,198.644 30.937,199.201 30.426 C 200.343 29.377,200.874 27.219,200.109 26.735 C 199.892 26.597,187.003 26.487,170.817 26.485 L 141.913 26.481 141.479 27.100 M209.128 135.698 C 209.058 245.785,209.052 245.003,210.007 245.640 C 210.703 246.105,259.998 245.886,260.468 245.416 C 260.849 245.035,260.898 243.948,260.843 237.123 L 260.780 229.268 260.634 237.073 L 260.488 244.878 235.277 244.949 C 217.869 244.998,209.975 244.929,209.772 244.726 C 209.567 244.521,209.435 211.472,209.337 135.805 L 209.197 27.178 209.128 135.698 M132.590 39.883 C 132.028 40.509,131.568 41.236,131.568 41.498 C 131.568 41.761,131.098 42.494,130.523 43.126 C 129.082 44.712,128.502 45.495,128.502 45.854 C 128.502 46.021,128.000 46.649,127.387 47.247 C 126.764 47.856,126.281 48.588,126.294 48.907 C 126.309 49.306,126.361 49.352,126.467 49.059 C 126.550 48.829,127.022 48.202,127.517 47.666 C 128.011 47.129,128.708 46.188,129.066 45.575 C 129.424 44.962,130.196 43.930,130.782 43.281 C 131.367 42.633,131.847 41.912,131.847 41.680 C 131.847 41.447,132.303 40.751,132.861 40.133 C 133.419 39.515,133.817 38.950,133.744 38.877 C 133.671 38.804,133.152 39.257,132.590 39.883 M125.207 50.447 C 124.726 50.906,124.247 51.625,124.142 52.044 C 124.036 52.464,123.532 53.201,123.020 53.684 C 122.509 54.166,122.094 54.797,122.099 55.085 C 122.107 55.563,122.132 55.567,122.382 55.139 C 122.533 54.880,123.031 54.294,123.489 53.837 C 123.946 53.379,124.321 52.781,124.321 52.507 C 124.321 52.233,124.783 51.536,125.348 50.958 C 126.578 49.698,126.456 49.254,125.207 50.447 M185.087 49.920 C 185.087 50.088,184.398 50.997,183.555 51.941 C 182.713 52.886,182.023 53.815,182.022 54.006 C 182.021 54.197,181.564 54.859,181.006 55.477 C 180.448 56.095,180.054 56.663,180.131 56.739 C 180.341 56.949,182.300 54.692,182.300 54.241 C 182.300 54.025,182.987 53.116,183.827 52.221 C 185.111 50.852,185.774 49.617,185.226 49.617 C 185.150 49.617,185.087 49.753,185.087 49.920 M121.134 56.651 C 120.235 57.573,118.759 59.659,118.751 60.019 C 118.748 60.144,118.307 60.661,117.770 61.167 C 117.233 61.673,116.794 62.226,116.794 62.396 C 116.794 62.840,118.805 60.553,119.575 59.233 C 119.933 58.620,120.669 57.650,121.210 57.078 C 121.751 56.506,122.139 55.987,122.072 55.926 C 122.006 55.864,121.583 56.190,121.134 56.651 M179.823 57.443 C 179.805 57.684,179.465 58.186,179.066 58.558 C 178.668 58.929,177.887 59.923,177.330 60.767 C 176.774 61.610,175.977 62.671,175.559 63.126 C 175.142 63.580,174.855 64.008,174.923 64.075 C 175.176 64.328,177.840 61.091,177.840 60.530 C 177.840 60.414,178.352 59.801,178.979 59.169 C 179.723 58.416,180.073 57.842,179.987 57.511 C 179.888 57.129,179.848 57.112,179.823 57.443 M116.538 63.166 C 116.526 63.337,116.078 63.901,115.543 64.421 C 115.008 64.941,114.569 65.618,114.567 65.925 C 114.566 66.233,114.130 66.884,113.599 67.371 C 113.067 67.859,112.545 68.607,112.438 69.034 C 112.331 69.461,111.825 70.205,111.313 70.687 C 110.802 71.169,110.383 71.687,110.383 71.836 C 110.383 71.986,110.132 72.336,109.826 72.613 C 109.519 72.891,109.268 73.306,109.268 73.536 C 109.268 73.766,108.767 74.431,108.153 75.015 C 107.540 75.598,107.038 76.340,107.038 76.663 C 107.038 76.986,106.599 77.664,106.063 78.170 C 105.526 78.676,105.087 79.229,105.087 79.400 C 105.087 79.570,105.589 79.164,106.202 78.499 C 106.815 77.834,107.317 77.088,107.317 76.842 C 107.317 76.596,107.882 75.759,108.571 74.983 C 109.261 74.206,109.826 73.469,109.826 73.344 C 109.826 73.220,110.453 72.401,111.220 71.525 C 111.986 70.649,112.613 69.735,112.613 69.492 C 112.613 69.250,113.115 68.508,113.728 67.842 C 114.341 67.177,114.843 66.416,114.843 66.150 C 114.843 65.885,115.297 65.204,115.851 64.637 C 116.405 64.069,116.791 63.437,116.709 63.231 C 116.627 63.025,116.550 62.996,116.538 63.166 M174.495 64.705 C 174.495 64.878,174.056 65.505,173.519 66.099 C 172.983 66.693,172.544 67.311,172.544 67.472 C 172.544 67.633,171.848 68.636,170.999 69.701 C 170.149 70.766,169.563 71.638,169.696 71.638 C 170.070 71.638,172.822 68.159,172.822 67.686 C 172.822 67.565,173.261 67.015,173.798 66.462 C 174.621 65.614,175.115 64.390,174.634 64.390 C 174.557 64.390,174.495 64.532,174.495 64.705 M169.231 72.210 C 169.213 72.448,168.765 73.063,168.236 73.576 C 167.706 74.090,167.199 74.849,167.107 75.264 C 167.016 75.680,166.563 76.382,166.100 76.825 C 165.637 77.268,164.899 78.258,164.460 79.024 C 164.021 79.791,163.277 80.787,162.806 81.237 C 162.336 81.687,161.952 82.189,161.953 82.352 C 161.955 82.989,165.277 78.892,165.291 78.234 C 165.294 78.106,165.735 77.613,166.272 77.137 C 166.808 76.662,167.247 76.043,167.247 75.761 C 167.247 75.479,167.759 74.693,168.385 74.014 C 169.109 73.229,169.476 72.597,169.393 72.278 C 169.297 71.906,169.255 71.888,169.231 72.210 M104.830 80.170 C 104.818 80.340,104.371 80.904,103.836 81.424 C 103.301 81.944,102.862 82.600,102.860 82.882 C 102.858 83.164,102.168 84.168,101.325 85.112 C 100.483 86.057,99.793 86.996,99.792 87.200 C 99.792 87.403,99.289 88.067,98.676 88.674 C 98.008 89.335,97.570 90.025,97.583 90.394 C 97.597 90.800,97.657 90.868,97.756 90.592 C 97.839 90.362,98.312 89.735,98.806 89.199 C 99.300 88.662,99.997 87.721,100.355 87.108 C 100.713 86.495,101.485 85.463,102.071 84.815 C 102.657 84.166,103.136 83.419,103.136 83.154 C 103.136 82.889,103.589 82.207,104.143 81.640 C 104.697 81.073,105.083 80.440,105.001 80.235 C 104.919 80.029,104.842 80.000,104.830 80.170 M160.918 83.921 C 160.426 84.470,159.904 85.224,159.758 85.596 C 159.612 85.968,158.839 86.999,158.040 87.887 C 156.521 89.577,156.257 90.329,157.656 88.980 C 158.517 88.149,160.000 86.106,160.000 85.750 C 160.000 85.633,160.450 85.114,160.999 84.595 C 161.548 84.077,161.956 83.489,161.905 83.287 C 161.847 83.061,161.469 83.304,160.918 83.921 M156.409 90.280 C 156.391 90.491,155.937 91.150,155.401 91.744 C 154.864 92.338,154.425 93.015,154.425 93.247 C 154.425 93.480,153.942 94.201,153.353 94.849 C 152.763 95.498,151.952 96.596,151.550 97.291 C 151.149 97.986,150.439 98.918,149.974 99.364 C 149.509 99.809,149.129 100.401,149.129 100.679 C 149.129 100.956,148.675 101.685,148.121 102.299 C 146.965 103.578,147.100 103.814,148.300 102.614 C 148.740 102.174,149.180 101.497,149.277 101.111 C 149.374 100.724,149.824 100.028,150.278 99.564 C 151.118 98.705,152.474 96.834,152.474 96.534 C 152.474 96.443,152.976 95.825,153.589 95.159 C 154.202 94.494,154.704 93.733,154.704 93.467 C 154.704 93.202,155.155 92.523,155.706 91.959 C 156.357 91.292,156.661 90.752,156.574 90.414 C 156.501 90.129,156.426 90.068,156.409 90.280 M96.331 92.121 C 95.781 92.654,95.331 93.353,95.331 93.672 C 95.331 93.992,94.892 94.668,94.355 95.174 C 93.819 95.680,93.380 96.300,93.380 96.551 C 93.380 96.803,93.129 97.224,92.822 97.486 C 92.516 97.749,92.265 98.094,92.265 98.253 C 92.265 98.412,92.045 98.682,91.777 98.854 C 91.509 99.025,90.976 99.774,90.592 100.518 C 90.209 101.261,89.494 102.235,89.003 102.681 C 88.512 103.128,88.036 103.833,87.945 104.248 C 87.854 104.663,87.346 105.423,86.816 105.936 C 86.287 106.449,85.864 107.127,85.876 107.441 C 85.891 107.848,85.944 107.892,86.055 107.596 C 86.142 107.366,86.634 106.707,87.148 106.132 C 87.663 105.556,88.084 104.895,88.084 104.662 C 88.084 104.429,88.563 103.708,89.149 103.060 C 89.734 102.412,90.513 101.380,90.879 100.767 C 91.245 100.153,92.020 99.044,92.601 98.302 C 93.183 97.561,93.659 96.801,93.659 96.615 C 93.659 96.429,94.098 95.851,94.634 95.331 C 95.171 94.811,95.610 94.164,95.610 93.894 C 95.610 93.624,95.898 93.115,96.251 92.764 C 97.059 91.961,97.676 91.150,97.480 91.150 C 97.397 91.150,96.880 91.587,96.331 92.121 M146.921 103.835 C 146.909 103.989,146.209 104.907,145.366 105.873 C 144.523 106.840,143.833 107.804,143.833 108.015 C 143.833 108.226,143.331 108.978,142.718 109.686 C 142.105 110.395,141.603 111.151,141.603 111.366 C 141.603 111.581,141.221 112.192,140.755 112.723 C 139.646 113.986,137.422 117.310,137.422 117.703 C 137.422 117.873,141.498 126.173,146.481 136.149 C 151.464 146.124,155.541 154.474,155.542 154.704 C 155.543 154.934,155.793 155.498,156.098 155.958 C 156.616 156.741,156.651 156.754,156.653 156.158 C 156.654 155.809,156.476 155.454,156.258 155.370 C 156.039 155.286,155.775 154.694,155.670 154.055 C 155.565 153.415,155.326 152.704,155.138 152.474 C 154.949 152.244,154.634 151.648,154.437 151.150 C 154.240 150.652,153.968 150.244,153.834 150.244 C 153.699 150.244,153.589 150.041,153.589 149.794 C 153.589 149.401,152.916 147.908,152.158 146.620 C 152.023 146.390,151.774 145.889,151.606 145.505 C 151.437 145.122,151.186 144.620,151.048 144.390 C 150.910 144.160,150.659 143.659,150.491 143.275 C 150.322 142.892,150.071 142.390,149.933 142.160 C 149.795 141.930,149.544 141.429,149.376 141.045 C 149.207 140.662,148.965 140.160,148.838 139.930 C 148.711 139.700,148.277 138.822,147.875 137.979 C 147.472 137.136,147.024 136.258,146.879 136.028 C 146.735 135.798,146.478 135.296,146.310 134.913 C 146.141 134.530,145.890 134.028,145.752 133.798 C 145.614 133.568,145.363 133.066,145.195 132.683 C 145.026 132.300,144.775 131.798,144.637 131.568 C 144.499 131.338,144.248 130.836,144.080 130.453 C 143.911 130.070,143.661 129.568,143.524 129.338 C 143.386 129.108,143.149 128.606,142.996 128.223 C 142.843 127.840,142.601 127.338,142.457 127.108 C 142.313 126.878,141.866 126.000,141.464 125.157 C 141.061 124.314,140.613 123.436,140.468 123.206 C 140.323 122.976,140.067 122.474,139.899 122.091 C 139.730 121.707,139.479 121.206,139.341 120.976 C 139.203 120.746,138.952 120.244,138.784 119.861 C 138.615 119.477,138.364 118.976,138.226 118.746 C 138.088 118.516,137.905 118.182,137.818 118.005 C 137.731 117.827,138.108 117.044,138.656 116.265 C 139.204 115.486,139.652 114.768,139.652 114.668 C 139.652 114.569,140.153 113.943,140.767 113.278 C 141.380 112.613,141.882 111.845,141.882 111.572 C 141.882 111.299,142.302 110.691,142.815 110.220 C 143.329 109.748,143.833 109.028,143.936 108.618 C 144.038 108.209,144.528 107.435,145.023 106.900 C 146.553 105.246,147.229 104.262,147.083 103.901 C 147.006 103.710,146.933 103.680,146.921 103.835 M84.636 109.148 C 84.065 109.719,83.633 110.421,83.646 110.760 C 83.661 111.163,83.717 111.222,83.819 110.941 C 83.902 110.711,84.417 110.055,84.963 109.482 C 86.257 108.128,85.960 107.824,84.636 109.148 M156.684 157.083 C 157.451 159.087,161.826 167.266,161.907 166.848 C 161.965 166.551,161.810 166.161,161.564 165.981 C 161.318 165.801,161.036 165.249,160.937 164.754 C 160.838 164.259,160.587 163.789,160.378 163.709 C 160.170 163.629,160.000 163.344,160.000 163.074 C 160.000 162.804,159.749 162.265,159.443 161.875 C 159.136 161.485,158.885 160.984,158.885 160.760 C 158.885 160.537,158.634 160.035,158.328 159.645 C 158.021 159.255,157.770 158.693,157.770 158.396 C 157.770 158.099,157.501 157.617,157.172 157.325 C 156.843 157.033,156.623 156.924,156.684 157.083 M100.936 163.129 C 99.956 164.175,99.217 165.094,99.295 165.172 C 99.480 165.357,102.578 162.254,102.578 161.882 C 102.578 161.402,103.873 163.469,104.074 164.270 C 104.177 164.681,104.385 165.017,104.535 165.017 C 104.685 165.017,104.808 165.226,104.808 165.482 C 104.808 165.738,104.893 165.862,104.996 165.759 C 105.201 165.554,104.221 163.428,103.298 162.077 L 102.718 161.227 100.936 163.129 M98.537 166.334 C 98.230 166.713,97.260 167.858,96.381 168.877 C 95.502 169.897,94.781 170.899,94.778 171.104 C 94.776 171.309,94.021 172.261,93.101 173.219 C 92.181 174.176,91.429 175.053,91.429 175.167 C 91.429 175.446,89.096 178.462,88.491 178.963 C 88.225 179.184,87.715 179.829,87.357 180.395 C 86.999 180.962,86.170 182.044,85.513 182.799 C 83.367 185.269,83.301 185.366,83.766 185.366 C 83.994 185.366,84.181 185.251,84.181 185.111 C 84.181 184.971,84.651 184.375,85.226 183.787 C 86.332 182.655,87.526 181.031,87.526 180.658 C 87.526 180.536,88.182 179.757,88.984 178.929 C 90.424 177.439,91.707 175.771,91.707 175.387 C 91.707 175.278,92.460 174.406,93.380 173.448 C 94.300 172.490,95.052 171.532,95.052 171.318 C 95.052 171.105,95.446 170.509,95.926 169.995 C 97.839 167.948,99.281 166.137,99.190 165.897 C 99.137 165.758,98.843 165.955,98.537 166.334 M105.088 166.455 C 105.087 166.974,106.499 169.845,106.827 169.988 C 106.943 170.039,107.038 170.305,107.038 170.578 C 107.038 170.851,107.289 171.394,107.596 171.783 C 107.902 172.173,108.153 172.615,108.153 172.765 C 108.153 172.915,108.906 174.509,109.826 176.307 C 110.746 178.105,111.498 179.787,111.498 180.046 C 111.498 180.304,111.649 180.666,111.833 180.850 C 112.016 181.034,112.299 181.583,112.460 182.069 C 112.621 182.556,112.910 183.006,113.101 183.069 C 113.359 183.153,113.345 182.977,113.044 182.393 C 112.821 181.958,112.413 181.059,112.138 180.394 C 111.118 177.930,105.089 166.010,105.088 166.455 M161.980 167.695 C 162.133 168.121,178.940 201.852,179.257 202.369 C 179.398 202.599,179.642 203.101,179.800 203.484 C 180.196 204.447,180.184 204.423,181.744 207.356 C 182.509 208.795,183.136 210.128,183.136 210.318 C 183.136 210.508,183.321 210.817,183.547 211.004 C 183.773 211.192,184.039 211.803,184.139 212.363 C 184.240 212.922,184.479 213.568,184.671 213.798 C 184.864 214.028,185.114 214.530,185.228 214.913 C 185.341 215.296,185.546 215.750,185.683 215.922 C 185.820 216.094,186.750 217.912,187.751 219.964 C 188.752 222.015,189.691 223.882,189.838 224.111 C 189.985 224.341,190.238 224.839,190.400 225.217 C 190.562 225.595,192.750 230.024,195.262 235.060 C 197.775 240.095,199.761 244.395,199.676 244.616 C 199.544 244.962,195.603 245.017,171.279 245.017 C 139.548 245.017,142.596 245.237,141.551 242.875 C 141.264 242.226,140.908 241.620,140.759 241.528 C 140.610 241.436,140.487 241.149,140.485 240.889 C 140.484 240.630,140.174 239.791,139.797 239.024 C 139.420 238.258,139.108 237.495,139.103 237.329 C 139.098 237.163,137.463 233.777,135.470 229.804 C 133.477 225.832,131.847 222.430,131.847 222.245 C 131.847 222.059,131.345 220.955,130.732 219.791 C 130.118 218.627,129.617 217.532,129.617 217.358 C 129.617 217.184,128.130 214.023,126.313 210.333 C 124.496 206.643,122.811 203.185,122.568 202.648 C 122.204 201.843,122.123 201.783,122.108 202.301 C 122.099 202.646,122.341 203.397,122.648 203.969 C 122.955 204.541,123.206 205.152,123.206 205.328 C 123.206 205.503,123.386 205.795,123.606 205.978 C 123.826 206.161,124.085 206.669,124.181 207.108 C 124.278 207.547,124.536 208.055,124.757 208.238 C 124.977 208.421,125.157 208.789,125.157 209.056 C 125.157 209.323,125.408 209.860,125.714 210.250 C 126.021 210.640,126.272 211.108,126.272 211.289 C 126.272 211.471,126.523 211.938,126.829 212.328 C 127.136 212.718,127.387 213.220,127.387 213.443 C 127.387 213.667,127.638 214.168,127.944 214.558 C 128.251 214.948,128.502 215.485,128.502 215.753 C 128.502 216.020,128.674 216.382,128.885 216.556 C 129.096 216.731,129.349 217.379,129.448 217.995 C 129.546 218.611,129.813 219.187,130.040 219.274 C 130.267 219.361,130.453 219.734,130.453 220.102 C 130.453 220.471,130.704 220.987,131.010 221.249 C 131.328 221.521,131.568 222.072,131.568 222.527 C 131.568 222.967,131.819 223.646,132.125 224.035 C 132.432 224.425,132.683 224.927,132.683 225.150 C 132.683 225.374,132.934 225.876,133.240 226.265 C 133.547 226.655,133.798 227.157,133.798 227.380 C 133.798 227.604,134.049 228.106,134.355 228.495 C 134.662 228.885,134.913 229.423,134.913 229.690 C 134.913 229.957,135.089 230.322,135.304 230.500 C 135.519 230.678,135.780 231.163,135.884 231.578 C 135.988 231.992,136.188 232.471,136.330 232.641 C 136.801 233.209,137.979 235.564,137.979 235.939 C 137.979 236.142,138.168 236.465,138.400 236.657 C 138.631 236.849,138.900 237.502,138.997 238.109 C 139.094 238.715,139.331 239.272,139.524 239.346 C 139.717 239.420,139.957 239.918,140.058 240.451 C 140.235 241.397,141.102 243.233,141.929 244.413 C 142.978 245.910,141.725 245.850,171.771 245.852 L 199.569 245.854 200.033 245.145 C 200.502 244.429,200.459 244.188,199.612 242.787 C 199.472 242.557,198.271 240.174,196.943 237.491 C 195.614 234.808,194.424 232.425,194.298 232.195 C 194.173 231.965,193.289 230.146,192.334 228.153 C 191.380 226.160,190.483 224.341,190.342 224.111 C 190.201 223.882,189.883 223.223,189.635 222.648 C 189.387 222.073,189.077 221.603,188.947 221.603 C 188.817 221.603,188.711 221.421,188.711 221.198 C 188.711 220.975,188.209 219.840,187.596 218.676 C 186.983 217.512,186.481 216.428,186.481 216.268 C 186.481 216.107,186.230 215.658,185.923 215.268 C 185.617 214.878,185.366 214.340,185.366 214.073 C 185.366 213.806,185.191 213.442,184.977 213.265 C 184.763 213.087,184.509 212.520,184.412 212.004 C 184.315 211.488,184.051 210.913,183.825 210.726 C 183.599 210.538,183.415 210.166,183.415 209.899 C 183.415 209.632,183.164 209.094,182.857 208.704 C 182.551 208.315,182.300 207.813,182.300 207.589 C 182.300 207.366,182.049 206.864,181.742 206.474 C 181.436 206.085,181.185 205.583,181.185 205.359 C 181.185 205.136,180.934 204.634,180.627 204.244 C 180.321 203.855,180.070 203.269,180.070 202.944 C 180.070 202.618,179.885 202.281,179.659 202.194 C 179.433 202.108,179.167 201.600,179.066 201.066 C 178.966 200.532,178.712 200.029,178.501 199.948 C 178.291 199.867,178.118 199.580,178.118 199.311 C 178.118 199.041,177.868 198.502,177.561 198.112 C 177.254 197.722,177.003 197.221,177.003 196.997 C 177.003 196.774,176.753 196.272,176.446 195.882 C 176.139 195.492,175.889 194.991,175.889 194.767 C 175.889 194.544,175.638 194.042,175.331 193.652 C 175.024 193.262,174.774 192.761,174.774 192.537 C 174.774 192.314,174.542 191.832,174.259 191.466 C 173.975 191.101,173.659 190.456,173.556 190.035 C 173.453 189.613,173.256 189.268,173.118 189.268 C 172.980 189.268,172.786 188.901,172.687 188.451 C 172.588 188.002,172.328 187.485,172.108 187.302 C 171.887 187.120,171.707 186.751,171.707 186.484 C 171.707 186.217,171.456 185.680,171.150 185.290 C 170.843 184.900,170.592 184.398,170.592 184.175 C 170.592 183.951,170.341 183.450,170.035 183.060 C 169.728 182.670,169.477 182.168,169.477 181.945 C 169.477 181.721,169.226 181.220,168.920 180.830 C 168.613 180.440,168.362 179.855,168.362 179.529 C 168.362 179.204,168.178 178.866,167.952 178.780 C 167.726 178.693,167.459 178.185,167.359 177.651 C 167.259 177.117,167.005 176.614,166.794 176.533 C 166.583 176.452,166.411 176.166,166.411 175.896 C 166.411 175.627,166.160 175.087,165.854 174.697 C 165.547 174.308,165.296 173.806,165.296 173.582 C 165.296 173.359,165.045 172.857,164.739 172.467 C 164.432 172.078,164.181 171.576,164.181 171.353 C 164.181 171.129,163.930 170.627,163.624 170.238 C 163.317 169.848,163.066 169.286,163.066 168.989 C 163.066 168.692,162.797 168.210,162.468 167.918 C 162.139 167.626,161.919 167.525,161.980 167.695 M113.487 184.144 C 113.466 184.639,113.689 185.316,114.007 185.721 C 114.314 186.110,114.564 186.549,114.564 186.695 C 114.564 186.842,115.191 188.139,115.956 189.578 C 116.721 191.017,117.473 192.509,117.628 192.892 C 117.783 193.275,118.035 193.777,118.190 194.007 C 118.344 194.237,118.543 194.613,118.631 194.843 C 118.858 195.437,119.260 196.306,119.532 196.794 C 120.465 198.467,120.976 199.630,120.976 200.082 C 120.976 200.373,121.226 200.837,121.533 201.115 C 121.840 201.392,122.091 201.490,122.091 201.332 C 122.091 201.173,121.916 200.899,121.702 200.721 C 121.488 200.544,121.226 199.932,121.121 199.363 C 121.015 198.793,120.766 198.139,120.567 197.909 C 120.368 197.679,120.113 197.190,120.001 196.822 C 119.888 196.453,119.449 195.563,119.024 194.843 C 118.600 194.123,118.161 193.233,118.048 192.865 C 117.936 192.496,117.685 192.007,117.491 191.777 C 117.298 191.547,117.047 191.045,116.934 190.662 C 116.821 190.279,116.570 189.777,116.376 189.547 C 116.183 189.317,115.932 188.815,115.819 188.432 C 115.706 188.049,115.455 187.547,115.261 187.317 C 115.068 187.087,114.817 186.585,114.704 186.202 C 114.591 185.819,114.337 185.317,114.139 185.087 C 113.941 184.857,113.722 184.355,113.652 183.972 C 113.541 183.362,113.521 183.383,113.487 184.144 M260.692 226.620 C 260.692 227.157,260.749 227.376,260.819 227.108 C 260.889 226.840,260.889 226.401,260.819 226.132 C 260.749 225.864,260.692 226.084,260.692 226.620 " stroke="none" fill="#c9f0e0" fill-rule="evenodd"></path></g></svg>